<svg width="568" height="462" viewBox="0 0 568 462" fill="none" xmlns="http://www.w3.org/2000/svg">
<path d="M558.977 357.082C557.657 358.065 556.262 359.014 554.866 359.997C550.794 358.37 552.49 358.573 552.754 357.625C548.229 355.828 551.887 356.405 553.018 356.201L550.53 355.252L550.756 353.829C546.721 352.236 548.946 363.013 545.099 363.69C544.684 362.267 544.307 360.81 543.855 359.353C543.855 359.048 542.535 357.828 542.346 357.15C542.12 357.353 541.894 357.523 541.705 357.726C541.705 360.674 533.862 376.161 536.162 378.77L534.654 380.499L536.992 381.617C540.763 377.483 542.724 372.942 547.965 370.332L550.454 371.383C550.907 373.213 551.359 375.009 551.774 376.839C551.577 380.774 550.997 384.686 550.039 388.53C547.443 394.231 544.02 399.598 539.858 404.491L537.633 403.339C539.495 400.234 541.059 396.991 542.309 393.647C538.538 391.749 534.277 397.646 532.655 398.798C516.138 412.557 490.231 425.332 459.686 433.431C450.41 435.939 440.643 438.074 430.536 439.904C430.536 439.124 430.31 438.108 431.064 437.667C438.606 435.939 446.148 434.075 453.389 431.906C467.53 427.704 480.163 421.74 492.682 417.233C500.828 414.454 516.591 411.269 516.402 404.356C520.173 402.289 525.226 400.018 524.359 396.324C529.466 392.79 533.457 388.117 535.936 382.769C531.939 380.838 529.902 385.785 528.695 386.87C514.856 401.17 493.399 413.98 463.533 423.231C460.516 420.351 465.833 419.368 467.907 418.86C484.505 415.047 499.769 407.542 512.292 397.036C516.131 393.489 519.661 389.683 522.85 385.65C523.423 385.247 523.885 384.733 524.204 384.146C524.522 383.558 524.687 382.914 524.687 382.261C524.687 381.608 524.522 380.963 524.204 380.376C523.885 379.789 523.423 379.275 522.85 378.872L522.322 379.414C526.357 381.448 523.529 381.685 523.491 381.685C523.327 381.885 523.151 382.077 522.964 382.261C519.984 380.736 520.512 381.278 521.229 380.567C515.761 377.55 506.597 350.339 505.919 350.068C498.641 346.679 492.004 347.797 494.229 350.915C495.398 351.525 481.369 353.05 482.199 352.677C506.975 363.792 438.229 336.479 434.157 340.443C432.837 341.392 428.538 339.867 427.331 340.681C426.954 341.731 426.615 342.748 426.2 343.798C412.377 350.209 397.629 354.863 382.381 357.625C372.781 359.468 363.055 360.735 353.269 361.42C347.989 361.793 342.898 360.81 339.655 364.571C339.188 363.683 338.968 362.706 339.014 361.725C337.129 362.945 335.243 364.165 333.169 365.351C325.627 367.249 317.293 366.537 309.751 366.571C309.751 367.011 309.751 367.452 309.978 367.893L319.141 368.57L319.48 369.926C302.577 370.897 285.606 370.089 268.911 367.52C248.095 364.944 227.77 363.657 209.669 357.862C188.214 350.558 168.171 340.266 150.276 327.363C118.863 306.657 103.742 281.208 98.5376 257.486C92.6552 239.863 92.8656 221.05 99.141 203.537C101.913 196.614 105.254 189.886 109.134 183.408C115.753 170.964 123.497 159.029 132.288 147.724C135.569 143.759 138.925 139.828 142.206 135.863C144.648 133.845 146.566 131.369 147.825 128.611C147.825 128.611 148.126 128.272 148.277 128.103L147.825 127.628C142.055 134.067 136.172 141.387 130.553 148.198C129.007 150.198 123.69 154.061 124.03 156.433C122.521 157.992 119.467 159.652 119.919 161.991C118.441 163.477 117.267 165.187 116.45 167.04C115.432 166.532 115.733 166.565 115.432 167.04C116.412 167.548 116.299 167.345 115.96 167.684C117.921 168.633 110.869 171.615 110.793 172.259C110.718 172.902 110.152 174.394 109.813 175.444C106.922 179.933 104.763 184.772 103.402 189.812L102.422 189.372C102.799 188.864 101.554 188.66 100.951 188.152C100.574 188.66 101.177 189.202 102.007 189.88L98.9901 191.236C98.9901 191.914 98.9901 192.557 98.9901 193.235C98.9901 193.913 98.2359 194.726 97.8965 195.472C97.5571 196.217 97.6326 197.336 97.4817 198.284C95.6876 200.817 94.4106 203.617 93.7107 206.553C93.4845 207.536 93.2205 208.485 92.9942 209.467C91.8252 212.212 91.0333 215.025 90.1283 217.838C90.1283 218.38 90.5054 218.956 90.7316 219.498C89.4118 221.599 88.1296 223.734 86.9606 225.869L88.2051 226.106L89.0347 227.462C88.3288 230.77 88.6284 234.189 89.902 237.357L90.1283 238.882C90.1283 240.712 90.5054 242.542 90.6562 244.406H89.3364C89.3364 243.931 88.0919 243.626 86.7721 243.22C86.6771 244.519 86.9447 245.82 87.5505 247.004C88.1563 248.187 89.0812 249.216 90.2414 249.997C90.6562 250.641 91.1087 251.285 91.5613 251.929C91.5613 255.589 93.7107 258.977 94.0124 262.502C94.0124 263.213 93.7861 263.959 93.6353 264.67C94.3518 266.026 94.8797 267.381 95.7094 268.737C95.7094 268.432 96.0864 268.534 97.18 268.737H98.613C98.613 269.72 96.3504 270.702 93.3336 271.414C93.3336 272.126 94.9552 272.499 96.539 272.939H98.0097C98.0097 272.939 98.0097 273.142 98.0097 273.244C95.9733 273.244 97.708 273.244 96.6144 273.617C96.6287 273.729 96.6287 273.843 96.6144 273.956C99.4049 273.956 100.687 278.226 101.064 279.174H91.9761H90.5054C90.2791 278.327 91.1842 277.988 90.0151 277.175C89.638 275.548 89.0724 273.786 88.8461 272.329C89.5626 271.651 90.2414 270.94 90.9202 270.262L87.1492 267.991L84.9997 262.468C85.2637 261.078 85.4522 259.689 85.6785 258.333C81.6435 253.149 82.6617 247.794 82.096 242.643C81.5117 234.248 81.5117 225.827 82.096 217.431L83.9438 215.296C84.3964 212.382 84.9243 209.535 85.6785 206.689C86.5081 205.502 87.4132 204.35 88.3182 203.3C90.087 196.655 93.1787 190.352 97.444 184.695C98.4245 182.594 99.5935 180.561 100.612 178.46C104.443 173.017 108.836 167.912 113.735 163.211C114.527 161.516 115.394 159.822 116.224 158.161C119.768 153.394 123.401 148.594 127.122 143.759C132.304 137.273 137.868 131.04 143.79 125.087C147.183 121.698 150.879 118.682 153.971 115.158C156.46 112.176 158.911 109.227 161.513 106.245C165.559 102.463 169.337 98.456 172.826 94.2491C174.108 92.2497 175.353 90.0809 176.597 88.0137C177.842 86.6921 179.011 85.2349 180.18 83.9472C181.349 82.6595 182.555 81.3379 183.951 80.1179C183.423 78.6268 184.63 80.999 184.893 82.0495C185.157 83.1 184.893 82.8628 185.308 82.5578C186.289 81.304 188.74 78.3218 190.173 80.4229L189.834 80.8634C189.419 79.6774 188.853 81.6767 188.514 82.0156C185.271 85.4044 182.065 89.5726 178.521 93.6052C177.502 94.7574 175.24 94.9268 174.75 97.5023C171.921 101.23 168.942 104.924 165.925 108.685L164.228 110.719C164.333 110.921 164.459 111.114 164.606 111.295L164.153 111.803C164.832 112.82 166.001 110.617 166.416 110.109C171.808 103.5 177.012 96.079 182.669 93.5035C182.216 92.3175 182.103 93.1986 181.877 93.5035C181.76 93.2722 181.659 93.0345 181.575 92.7919C183.159 90.7248 187.043 84.4555 189.117 87.1327C189.381 86.2177 189.645 85.2688 189.871 84.32C191.266 81.5751 197.149 67.5794 198.997 68.5622C198.997 68.0878 198.997 67.6811 198.997 67.2744L199.223 68.1894V68.02C199.405 68.6525 199.519 69.2994 199.563 69.9516C199.563 66.5628 199.261 64.3601 199.035 62.7674C199.487 41.5198 200.317 37.1144 202.089 34.9117C202.253 33.2667 202.659 31.6486 203.296 30.0996C203.296 24.7792 209.744 -4.19478 205.408 0.515614C203.673 2.58277 202.202 5.66655 200.392 7.90314C198.582 10.1397 195.339 10.8853 193.755 16.6462C187.495 27.6936 179.765 35.6572 171.129 48.7717C169.018 51.8216 166.793 54.9393 164.455 57.9892C159.029 65.3002 152.95 72.2022 146.278 78.6268C142.233 83.2871 137.836 87.6917 133.118 91.8092C131.421 94.0119 129.648 96.1129 127.914 98.2478L127.574 98.5867L127.914 98.9934C130.629 96.4518 133.985 92.0125 137.077 91.5381C135.418 93.368 128.215 99.1628 130.93 102.179C130.93 102.179 131.194 102.484 131.27 102.619L130.667 103.229L130.327 102.789C129.686 103.399 129.422 104.28 128.63 104.856C127.838 105.432 124.859 106.008 124.18 107.736C122.295 109.499 115.092 114.514 115.583 116.751C114.941 117.259 114.074 118.377 113.094 118.072L113.433 117.767L112.981 117.361L111.246 118.818L110.793 118.377L111.133 118.106L110.68 117.699L113.094 116.276C113.999 114.582 114.866 112.887 115.733 111.227L115.319 110.82C115.922 110.346 115.319 110.244 114.866 109.668C112.754 111.464 110.529 113.057 108.342 114.921L108.757 115.429H108.455C105.853 116.547 93.3713 125.595 93.3713 127.459C91.1087 129.052 88.0165 129.628 86.2064 131.661L86.7721 132.102C84.1324 133.898 81.191 135.016 80.6254 137.998C81.6058 138.642 79.2678 138.439 78.4005 138.642C79.6072 139.421 78.4005 139.998 78.1365 140.54C78.8907 140.98 75.6099 143.047 75.0066 143.59L74.2901 143.183L73.913 143.454L73.1965 143.014L76.3264 140.912L75.6099 140.472L75.2328 140.743C74.1392 140.065 73.0079 141.726 72.8948 142.336L72.48 142.573L71.8012 142.166C71.9388 143.356 71.7839 144.559 71.3473 145.689C70.9107 146.819 70.2031 147.849 69.2747 148.707L67.7285 147.859C67.7285 147.453 67.9925 147.046 68.1433 146.639L67.7662 146.877C66.7104 146.301 61.6195 149.96 61.5064 151.011L59.998 153.01C59.5455 153.688 59.0175 154.332 58.5273 155.01L59.5455 155.484C58.2256 155.721 56.868 155.925 55.5482 156.094C54.0775 157.484 52.6445 158.839 51.1361 160.161L50.759 160.432L51.6641 160.906C53.3233 159.788 56.1893 160.025 58.0748 159.246C59.3192 158.229 60.5636 157.212 61.8458 156.162C63.505 156.162 65.1266 155.823 66.7104 155.62L67.54 156.06C67.0498 157.45 66.5972 158.839 66.107 160.228C63.8444 162.058 57.396 165.074 58.0748 167.548L54.3038 169.243L54.6432 168.972L50.4951 167.413L50.8344 167.142L51.7772 167.616C53.1348 166.565 54.3792 163.244 49.5523 161.177C48.3456 160.601 48.685 160.635 48.2702 161.008C45.1025 163.583 37.2211 166.667 38.1639 170.564C35.7127 172.326 31.1121 174.19 31.6024 176.935C27.7735 180.783 24.1735 184.81 20.8173 188.999C20.2894 190.422 19.7614 191.846 19.1958 193.269C17.3637 195.275 15.6517 197.368 14.0672 199.538L12.2571 203.334C10.711 205.333 7.6188 207.705 10.5602 210.857C8.63697 213.703 1.62291 219.532 5.46933 223.734C4.75284 225.327 2.94276 227.123 4.90368 229.292C4.41345 230.749 2.98047 232.274 4.90368 234.239C3.99864 236.815 -4.56153 243.592 3.28215 247.591C3.30032 247.726 3.30032 247.863 3.28215 247.998C2.41482 247.727 0.755585 254.775 2.18856 256.165C2.56566 258.842 2.86734 261.485 3.16902 264.196C3.4707 266.907 1.84917 269.042 4.86597 271.516C5.16765 277.141 5.77101 282.936 6.71376 288.866C6.97773 290.425 6.41208 292.594 8.86323 294.288C9.85009 300.851 11.7636 307.273 14.5574 313.401C15.3116 314.892 16.0281 316.417 16.7823 317.942L19.1581 324.482C28.6368 349.637 44.8955 372.292 66.4841 390.428C74.8235 397.667 83.8447 404.243 93.4468 410.083C96.3127 411.913 97.9342 415.573 104.533 415.945C118.524 423.167 133.023 429.563 147.938 435.092C150.992 433.635 153.066 435.77 154.462 436.515C169.546 444.953 197.526 447.935 218.569 454.205C220.416 452.68 219.511 452.985 221.472 453.29L222.867 452.137C230.824 453.256 238.291 457.864 248.963 456.949C307.262 463.422 371.143 464.676 429.217 454.713C438.229 453.527 471.64 447.63 474.242 443.428C491.266 439.125 507.575 432.8 522.737 424.621L529.638 421.232C532.742 420.703 535.954 421.158 538.726 422.52C542.271 420.622 539.179 416.115 541.291 413.98C543.93 411.201 552.604 412.963 555.281 409.913C563.162 402.865 552.641 381.515 564.181 379.414L564.595 378.77C559.127 376.534 560.259 371.993 559.693 370.366L562.22 371.383C561.843 372.298 562.22 372.366 564.181 373.755C564.181 373.315 564.558 372.874 564.784 372.4C567.763 373.586 564.369 368.164 564.067 366.605C564.897 364.131 558.524 359.827 559.655 357.387L558.977 357.082ZM198.092 36.8771L196.734 36.606C196.842 36.5386 196.963 36.492 197.091 36.4691C197.22 36.4462 197.352 36.4475 197.48 36.473C197.607 36.4985 197.728 36.5476 197.833 36.6172C197.939 36.6868 198.027 36.7753 198.092 36.8771V36.8771ZM187.269 47.3146C189.262 44.7494 191.454 42.3147 193.831 40.0287C193.849 40.2996 193.849 40.5712 193.831 40.842C192.549 42.9769 185.308 52.8383 183.724 51.5166C185.044 50.1272 186.176 48.704 187.269 47.2807V47.3146ZM181.726 53.821C182.442 53.1771 183.234 52.1605 184.139 53.1094L181.764 54.8038V54.5327C181.768 54.295 181.756 54.0572 181.726 53.821V53.821ZM179.086 78.0846C179.539 77.6102 179.84 77.8135 180.293 77.7796C179.962 78.0465 179.531 78.1916 179.086 78.1863V78.0846ZM181.349 54.3632C181.549 54.9088 181.626 55.4849 181.575 56.0576C181.575 55.8204 181.575 55.5832 181.575 55.346C181.582 55.4362 181.582 55.5268 181.575 55.6171C181.49 55.3966 181.427 55.1698 181.386 54.9393L181.349 54.3632ZM176.22 61.1408C178.143 60.3613 179.124 55.4815 181.198 56.4981C179.98 58.6474 178.286 60.5502 176.22 62.0896L176.446 61.7846L176.22 61.1408ZM172.675 50.4322C172.721 50.6396 172.784 50.8436 172.864 51.0422L172.638 51.3811C172.411 50.5678 172.638 50.6695 172.261 51.0761C172.261 50.8728 172.261 50.6695 172.261 50.4661L172.675 50.4322ZM175.994 62.0896C175.977 62.3153 175.977 62.5417 175.994 62.7674L175.617 63.3435C175.617 63.5468 175.617 63.784 175.617 63.9873C174.863 65.1734 173.09 67.1389 171.846 66.495C173.43 64.8345 174.636 63.4451 175.843 61.9541L175.994 62.0896ZM171.129 69.206C171.129 69.206 170.526 69.206 170.677 68.8672L170.451 68.2911L171.129 69.206ZM169.847 70.9682C169.847 70.9682 169.244 70.9682 169.395 70.6632C169.378 70.4602 169.378 70.2563 169.395 70.0532C169.244 70.2227 169.47 70.5277 169.696 70.7649L169.847 70.9682ZM171.544 88.7254L170.677 88.8948L170.375 88.2848L171.544 88.7254ZM167.773 73.2048C168.226 74.5264 166.981 74.5603 166.114 74.5603C166.001 74.1537 167.132 72.1543 167.434 73.0692L167.773 73.2048ZM165.133 94.7235C165.737 93.8763 166.302 92.9952 166.906 92.1819C167.547 93.4697 165.586 94.4863 165.133 94.7235ZM163.927 75.9836C164.041 76.1457 164.1 76.3343 164.097 76.5262C164.093 76.7181 164.027 76.9048 163.907 77.0634C163.786 77.222 163.617 77.3454 163.42 77.4185C163.222 77.4916 163.005 77.5111 162.795 77.4746L163.927 75.9836ZM162.607 78.6607L162.833 79.2368C162.456 79.7112 161.89 79.4401 161.438 79.2368L162.607 78.6607ZM160.533 98.5528H162.041C161.19 99.8313 160.205 101.034 159.1 102.145L158.76 101.603C159.402 100.586 160.005 99.5695 160.571 98.5528H160.533ZM61.2047 153.078L61.9589 152.536C63.2033 153.214 62.8262 153.383 62.8639 153.959L61.2047 153.078ZM429.556 428.653L430.8 428.382C431.064 428.687 431.291 429.026 431.555 429.365C430.876 429.162 430.235 428.924 429.556 428.653V428.653ZM446.789 429.704C442.189 429.331 437.588 430.72 432.61 429.704C437.136 428.585 440.718 425.874 446.789 428.077C445.168 428.382 445.206 427.84 446.789 429.704ZM450.372 425.264C453.811 424.01 457.549 423.567 461.232 423.977L450.372 425.264ZM459.196 347.323C478.39 359.793 498.716 372.671 520.022 385.311C522.85 382.295 473.865 335.631 480.012 341.257C475.25 346.771 469.696 351.694 463.495 355.896C462.137 355.151 460.818 354.371 459.498 353.592C460.171 352.662 460.51 351.568 460.469 350.459C460.429 349.35 460.011 348.279 459.271 347.39L459.196 347.323ZM484.386 360.505C482.086 361.386 479.71 362.233 477.297 363.08C477.003 362.54 476.857 361.944 476.873 361.342C476.888 360.741 477.064 360.151 477.386 359.623C477.707 359.096 478.165 358.645 478.72 358.309C479.275 357.973 479.912 357.761 480.578 357.692L482.689 358.844C482.124 359.556 481.596 359.048 484.386 360.573V360.505ZM486.762 382.701C485.97 383.04 485.97 383.176 484.386 382.159L486.762 382.701ZM472.055 363.318L471.037 364.233C468.096 362.47 468.586 362.233 468.058 360.844L472.055 363.318ZM468.284 366.503L463.042 365.588C463.721 364.809 465.871 365.588 468.397 366.571L468.284 366.503ZM500.865 391.309C503.882 389.106 510.972 387.92 510.218 384.159C511.396 383.477 512.733 383.046 514.125 382.899C515.517 382.753 516.928 382.894 518.25 383.311L518.815 382.735L521.078 383.921C516.93 387.92 509.162 391.139 508.37 396.697C496.189 400.086 488.61 408.083 475.449 411.269L473.752 409.947C474.355 410.15 502.789 397.849 500.979 391.377L500.865 391.309ZM456.971 361.793C453.136 362.999 449.619 364.902 446.639 367.384C435.072 374.829 421.426 379.229 407.232 380.092C402.97 380.397 398.257 382.532 392.148 379.109C396.333 378.025 408.288 379.109 409.381 375.077C417.79 373.145 446.865 358.438 457.084 361.86L456.971 361.793ZM441.661 376.568L439.059 378.194C437.89 375.077 437.513 376.398 441.774 376.636L441.661 376.568ZM436.759 404.186L431.102 402.322C432.874 401.848 434.458 402.865 436.872 404.254L436.759 404.186ZM414.133 405.406L415.264 406.796L417.338 406.321C417.753 406.762 418.13 407.236 418.507 407.711C416.618 407.987 414.873 408.79 413.519 410.006C412.166 411.222 411.272 412.79 410.965 414.488L396.522 415.674C395.655 414.251 394.787 412.828 393.958 411.404C401.651 410.151 409.004 409.303 414.019 405.474L414.133 405.406ZM388.377 380.228C389.659 379.889 392.148 381.21 393.845 382.058L388.377 380.228ZM404.743 387.514L400.406 388.7L399.275 387.344L400.972 386.87C398.935 384.531 403.084 386.836 404.705 387.581L404.743 387.514ZM444.64 358.235C442.34 360.064 440.002 361.894 437.55 363.69L434.157 361.284C437.664 360.369 441.133 359.353 444.602 358.302L444.64 358.235ZM422.202 365.588C419.45 363.385 427.406 365.08 429.744 365.588L422.542 367.384C419.978 365.317 421.335 365.927 422.202 365.588ZM405.459 369.384C406.741 370.57 417.3 366.334 421.901 367.859C418.13 369.722 412.624 373.281 404.78 369.655L405.459 369.384ZM404.102 369.926L405.459 371.247C404.516 371.586 404.328 371.247 406.1 372.84C398.558 372.84 392.185 378.974 382.117 373.789C389.659 372.738 396.899 371.349 404.102 369.824V369.926ZM379.892 379.414C382.117 378.804 386.114 380.838 389.696 383.379L383.889 384.904L382.909 383.549L382.041 383.752L380.08 380.973L380.872 380.77L379.892 379.414ZM391.205 415.166L386.303 412.895C384.832 413.133 385.435 413.539 384.455 411.642C387.009 411.416 389.559 412.111 391.544 413.573C389.998 413.709 390.111 413.2 391.129 415.064L391.205 415.166ZM362.772 378.567L372.237 376.432L373.179 377.788C372.161 378.025 372.086 377.55 373.179 379.347C372.124 379.584 372.086 379.109 373.179 380.905C375.065 380.499 377.478 381.956 380.156 384.294C374.801 385.175 369.069 386.395 362.432 381.786H361.603C361.339 381.346 361.112 380.871 360.848 380.431L362.772 378.567ZM350.176 365.588C351.232 367.418 350.704 367.011 351.647 366.808L352.439 368.164L350.214 367.079C349.988 366.639 349.724 366.198 349.46 365.758L350.176 365.588ZM344.558 381.38C343.464 381.38 343.539 381.075 344.256 382.871L340.146 379.143C341.654 378.94 343.011 379.957 344.558 381.448V381.38ZM274.492 373.484H277.585C277.094 376.059 274.983 376.229 273.587 377.212C273.701 376.059 274.04 374.772 274.492 373.484ZM264.198 374.06H266.46C267.101 371.959 271.287 375.382 272.004 377.11C270.948 377.11 271.325 376.669 270.835 378.33L263.745 375.144L264.198 374.06ZM258.843 373.62C259.446 371.959 259.069 372.332 260.049 372.433L259.597 373.687C260.54 373.687 260.464 374.026 260.653 375.043C259.748 375.416 258.767 375.754 257.825 376.093L258.843 373.62ZM220.115 368.638L228.373 368.401C234.482 369.417 240.855 370.265 247.228 370.942C247.228 371.349 246.851 371.756 246.625 372.162H247.379L246.135 374.568C242.1 374.975 238.14 375.111 234.143 375.28C229.127 373.958 224.791 371.214 219.059 370.942L219.964 369.824H219.285L220.115 368.638ZM204.54 359.217C209.277 360.816 214.128 362.129 219.059 363.148C217.173 365.385 217.927 366.944 215.703 368.977L214.722 370.095C211.366 366.706 199.638 368.909 202.429 361.284C201.335 360.946 203.371 360.064 204.54 359.217ZM192.699 359.522C193.341 359.759 193.906 359.522 195.037 358.946C195.49 359.556 195.943 360.132 196.357 360.742L195.754 360.539L194.623 361.522L191.53 360.505L192.699 359.522ZM161.362 339.427L161.815 339.698C159.741 340.85 160.872 340.647 159.552 341.494L158.157 342.239L159.062 342.782L161.815 341.223C163.474 342.172 164.191 343.595 167.735 343.019C175.458 348.126 183.63 352.659 192.172 356.574L193.341 357.015L192.172 357.997L191.606 357.794C190.801 358.574 189.789 359.157 188.664 359.488L186.289 356.574C184.403 355.49 174.561 352.914 170.149 354.744L169.018 354.236L167.698 355.083C166.453 351.423 161.966 351.694 158.082 349.864C155.442 348.441 154.952 346.272 152.01 345.052L153.443 344.341C155.547 342.89 157.738 341.544 160.005 340.308L161.362 339.427ZM188.627 360.81L187.42 361.793L186.251 361.318L185.007 362.267L180.859 359.251C180.104 358.946 179.84 359.251 181.537 358.099L188.627 360.81ZM174.222 354.981C173.277 355.676 172.187 356.195 171.016 356.506L170.451 356.235C171.483 355.444 172.79 355.001 174.146 354.981H174.222ZM133.457 323.364C140.035 326.142 146.051 329.887 151.256 334.445C153.217 335.902 156.008 337.089 155.857 339.359L156.724 339.901L155.329 340.647C152.84 339.156 142.168 341.528 145.185 337.258L145.864 339.359L147.334 338.681L148.164 339.223C154.386 336.275 139.566 336.343 137.115 336.479C138.133 335.123 138.623 334.75 141.904 333.09C137.923 330.099 134.145 326.897 130.591 323.5C132.854 322.72 132.627 323.093 133.457 323.364ZM137.756 333.53L134.739 334.75L133.985 334.14C135.124 333.546 136.45 333.308 137.756 333.463V333.53ZM133.985 332.344L135.946 330.243C136.474 330.718 135.305 331.362 133.91 332.276L133.985 332.344ZM133.269 322.178L131.76 322.72L131.119 322.11L129.611 322.618L127.725 320.755C131.194 319.569 132.288 321.534 133.193 322.178H133.269ZM92.6171 280.089H95.5962C98.1982 282.123 100.574 284.156 103.402 286.088C104.986 287.884 106.268 289.747 108.003 291.543C108.908 293.204 108.418 295.407 112.226 296.356C113.508 298.355 112.981 301.744 117.921 302.591C118.75 303.811 117.581 305.099 113.81 306.793C115.658 307.64 117.581 308.42 119.617 309.165C122.046 311.579 124.9 313.617 128.065 315.197L126.556 315.671L126.858 315.977C125.2 316.496 123.44 316.704 121.689 316.588C119.937 316.471 118.231 316.032 116.676 315.299C118.976 314.689 118.373 315.095 118.788 315.536C121.616 314.757 116.148 312.927 115.017 312.486L111.246 309.097C111.246 308.284 111.51 307.471 111.661 306.691C109.436 305.166 107.06 303.641 105.024 302.049C102.912 297.406 98.0474 293.136 95.7471 288.731C94.2387 286.121 95.9733 283.173 91.4104 281.174L92.6171 280.089ZM75.082 276.328C77.0429 276.328 76.5527 276.328 76.6281 276.701C74.4409 276.701 78.589 280.767 79.3055 281.614C84.7357 281.614 83.0765 287.138 84.4341 288.155H85.9425C86.7019 289.498 87.1196 290.976 87.1652 292.483C87.2109 293.989 86.8834 295.485 86.2064 296.864L89.3364 296.559C88.733 297.508 88.1296 298.457 87.4886 299.405C87.7903 300.93 92.1269 301.642 93.4845 302.794C96.3881 305.437 92.768 310.249 99.5558 311.842C106.003 320.542 113.601 328.507 122.182 335.564L126.971 339.833C127.423 341.02 126.707 343.222 129.875 343.663L134.513 345.289C148.697 355.961 164.588 364.655 181.65 371.078C192.855 374.201 204.265 376.691 215.816 378.533C219.587 380.228 223.358 381.922 227.393 383.345C233.916 385.04 241.986 384.735 248.51 385.921C251.753 387.073 255.26 388.022 258.805 389.038L268.987 388.666C274.442 389.682 279.986 390.665 285.617 391.614C299.871 391.614 314.88 392.597 329.398 392.156C338.75 393.003 348.253 393.579 358.171 393.715C368.089 393.851 376.008 391.139 385.02 390.97C385.36 391.411 385.661 391.885 386.001 392.359C375.291 394.155 364.318 395.511 353.155 396.426C353.495 397.375 353.872 398.29 354.211 399.239L357.153 398.832L357.718 400.255C349.837 401.611 341.767 402.797 333.509 403.644L322.912 402.051C317.444 402.627 311.976 402.865 306.471 403.204C293.234 402.763 280.451 400.696 267.742 399.408C254.53 398.293 241.39 396.574 228.373 394.257C227.43 395.443 226.45 396.595 225.469 397.646L236.518 398.324C260.691 402.627 287.955 407.202 316.841 407.202C329.662 407.202 341.315 406.829 353.872 407.202L363.563 406.66L365.713 406.389L366.279 407.812L360.886 408.49L361.414 409.913L365.788 409.371C365.788 409.846 366.128 410.286 366.316 410.76C353.646 412.455 335.432 413.743 323.402 411.167C323.402 411.608 323.402 412.082 323.402 412.557H322.271C322.271 412.557 333.018 415.335 338.599 416.115C338.599 417.064 338.599 417.979 338.901 418.927C311.448 420.351 283.392 417.233 258.051 414.149C256.241 414.149 250.509 414.149 251.301 412.048C255.6 408.829 259.861 413.065 264.047 409.371C264.273 408.964 264.462 408.524 264.688 408.083C261.143 408.422 257.598 408.727 254.016 408.998C238.404 405.948 227.242 402.221 210.763 401.374L209.594 402.492L212.233 404.423L213.176 404.627C212.799 405 212.422 405.406 212.007 405.779C205.144 404.39 198.394 402.966 192.058 401.272L184.516 400.831C174.071 396.663 165.209 391.919 155.706 387.276C159.067 386.122 162.768 386.038 166.189 387.039C163.625 383.65 156.196 381.21 150.163 379.753C145.26 378.974 124.105 378.194 133.721 371.823L126.179 370.875C121.152 367.605 116.342 364.075 111.774 360.302C111.774 359.861 111.774 359.421 111.774 358.98L111.472 358.743H111.774C111.774 358.031 111.774 357.32 111.774 356.642C109.21 353.524 102.045 351.694 98.3868 348.746C96.6898 346.848 94.8797 345.018 93.3336 343.121C93.3336 341.968 93.3336 340.85 93.3336 339.732L88.5444 337.427C86.5458 335.598 85.4899 333.327 83.3028 331.531C77.1937 326.482 76.8921 320.45 73.1211 315.265C69.3501 310.08 64.674 304.726 61.3933 299.473C61.0162 297.745 60.6391 296.084 60.2242 294.322C53.889 284.495 54.1152 275.108 52.6822 265.789C48.1976 247.81 49.2009 229.077 55.5859 211.568C60.1042 198.368 67.4865 186.102 77.3069 175.478C78.9661 173.309 80.7008 171.208 82.3977 169.005C84.0947 166.803 86.9229 166.023 86.8098 163.787C88.6993 162.635 90.3571 161.202 91.7121 159.551C94.3518 157.517 97.0669 155.552 99.5935 153.451L100.31 153.858C99.9329 154.84 99.5558 155.789 99.2164 156.738C98.1228 157.856 96.9915 158.941 95.8602 160.127L96.6144 160.533C95.6339 161.482 93.937 162.533 94.2764 163.922C93.3336 164.803 91.9383 165.718 92.24 166.972C89.0724 170.361 85.9802 173.75 83.0011 177.138C81.4173 178.901 77.4577 182.527 78.4759 184.729C76.5527 186.796 71.575 190.66 72.5554 193.167C71.4995 194.828 70.4436 196.556 69.3501 198.183C68.2565 199.809 65.3528 200.521 66.7858 202.656C66.7858 203.469 66.5595 204.249 66.4841 205.028C65.0511 207.434 59.6963 210.111 62.7131 213.398C61.7704 214.991 59.3192 216.787 61.2424 218.922C60.6768 221.057 60.1111 223.226 59.734 225.428C59.3192 226.581 58.1879 227.835 59.734 229.19C59.9603 229.936 60.2243 230.681 60.4505 231.427C59.6963 233.392 57.2074 237.662 59.5078 239.797C59.0175 241.491 57.3583 243.762 59.8094 245.693C59.8094 247.151 59.5455 248.642 59.3946 250.099L57.5468 251.929C59.8094 252.268 57.8485 253.25 57.5468 253.657C59.4323 253.928 58.9798 253.657 58.9798 254.199L60.4128 254.403C60.4128 255.419 58.7913 256.402 60.4128 257.52C60.4128 258.876 59.5832 260.536 61.8458 261.892C62.2985 265.986 62.9781 270.058 63.8821 274.091C64.4478 275.582 63.6181 277.48 66.4087 278.903C68.3199 284.49 70.6378 289.958 73.3473 295.271C74.1833 298.893 75.7695 302.342 78.0234 305.437C78.6267 306.556 78.0234 308.013 80.3991 308.826C81.6435 310.69 82.6617 312.588 84.1701 314.485L88.2051 317.874C89.1478 321.263 90.7316 331.768 99.5181 333.429C102.158 336.479 107.06 345.052 114.376 345.832C121.05 351.525 125.689 357.862 135.229 362.775C137.794 364.097 139.604 366.164 144.167 366.164C149.031 371.417 201.599 394.901 212.045 389.886C192.489 383.836 173.306 376.856 154.575 368.977C133.193 359.353 121.541 346.713 108.342 334.513C103.93 331.328 99.7443 328.041 95.8979 324.652C92.8732 320.805 90.4379 316.611 88.6576 312.181C87.5263 309.809 83.793 307.742 83.2273 305.404C82.1715 301.473 78.7021 297.813 77.4577 294.424C74.3299 288.216 71.8065 281.775 69.9157 275.176C69.3124 273.854 68.8221 273.312 71.3487 272.431C72.4638 273.825 73.7131 275.13 75.082 276.328V276.328ZM41.143 238.069H42.6137L44.0467 238.407C43.7827 238.916 42.6891 238.509 41.0299 238.069H41.143ZM107.55 148.402C105.439 150.232 103.44 152.163 101.328 154.027L99.8952 153.214C102.519 151.269 104.576 148.78 105.891 145.962C107.666 144.179 109.71 142.628 111.962 141.353C112.075 143.014 107.513 147.046 107.55 148.402ZM74.3278 220.718C73.3017 223.228 72.7412 225.873 72.6685 228.546L71.3487 228.309C71.3487 228.309 71.3487 228.512 71.3487 228.614L70.0288 228.343C70.0448 228.242 70.0448 228.139 70.0288 228.038C67.8794 227.597 68.7467 227.225 68.7467 226.784C67.6996 225.161 66.7554 223.487 65.9184 221.769C66.3299 217.371 67.1243 213.008 68.2942 208.722L70.3305 207.604L71.4995 207.942C72.744 210.043 73.9884 212.077 75.2705 214.076C75.987 216.482 71.8766 218.244 74.3278 220.718ZM77.0052 205.774L76.8166 206.045C75.082 205.536 75.7608 205.57 76.0247 205.164L74.8934 204.825C75.2328 204.35 75.5345 203.876 75.8362 203.401C79.0038 204.35 78.1742 205.333 78.0988 206.112L77.0052 205.774ZM76.7035 268.093C76.9298 269.788 70.5568 265.789 70.6322 265.755C70.6322 264.942 70.6322 264.128 70.6322 263.349L73.5736 263.552C73.5736 263.891 73.5736 264.23 73.5736 264.569C74.6295 264.637 75.1197 267.314 76.7035 268.093V268.093ZM74.6295 259.587C74.6295 260.841 74.6295 262.061 74.6295 263.281H73.1965C70.0288 260.807 67.276 258.3 64.4101 255.69L65.8807 254.131H67.3137C67.3137 254.572 66.8235 254.436 68.7467 254.64C68.973 256.131 71.6127 258.333 74.6295 259.587ZM71.8766 253.352C69.5009 253.013 67.1629 252.64 64.7872 252.234L65.2397 247.523L66.6349 247.727C66.6349 248.845 69.0861 250.607 71.9898 251.725C72.0275 252.268 71.9521 252.81 71.9521 253.352H71.8766ZM72.1029 249.963L69.2747 249.658V248.98C70.3514 249.035 71.3754 249.418 72.1783 250.065L72.1029 249.963ZM72.4423 246.574C70.525 246.088 68.473 246.282 66.7104 247.117C66.2201 247.117 65.7676 247.117 65.3151 246.913C64.8626 246.71 65.3151 246.71 65.3151 246.608L63.9198 246.405L65.202 244.778C64.7117 242.813 64.1838 240.881 63.9198 238.95L62.5623 238.712C62.5623 238.916 62.5623 239.153 62.5623 239.356L61.2047 239.119C63.246 237.695 64.6832 235.686 65.2774 233.426C65.5036 232.409 64.8249 231.02 66.5218 230.444C68.7842 230.236 71.0677 230.304 73.3096 230.647L71.6127 232.003C71.387 237.01 71.69 242.025 72.5177 246.981L72.4423 246.574ZM106.381 159.619C105.721 160.133 105.226 160.798 104.947 161.543C104.669 162.287 104.617 163.086 104.797 163.854C103.44 165.312 98.7262 169.175 99.1033 170.869C98.613 171.784 98.1605 172.699 97.6703 173.648C92.9484 178.487 89.1282 183.98 86.3573 189.914C85.4899 191.134 84.7357 192.388 84.0193 193.642C81.7189 196.488 82.2092 200.419 78.8153 202.622L77.7217 202.283V202.588L76.5904 202.249C81.1094 194.821 85.0531 187.121 88.3936 179.206C88.8838 177.647 89.3741 176.054 89.8266 174.495C92.6548 171.784 95.4454 169.039 98.3491 166.362C100.876 162.973 103.553 159.585 106.268 156.196C107.173 154.942 108.983 153.654 108.418 151.858C109.508 152.6 110.387 153.564 110.982 154.671C109.511 155.959 106.155 157.687 106.532 159.89L106.381 159.619ZM126.368 136.067C124.784 137.591 123.275 139.15 121.654 140.675L121.088 140.235C121.956 138.778 122.823 137.32 123.652 135.863C124.482 134.406 125.727 133.898 126.745 132.881L127.273 133.322L126.368 136.067ZM121.692 131.221L123.841 131.966L123.539 132.237L121.692 131.221ZM128.329 128.543L127.423 127.933C127.914 127.493 127.687 126.646 127.65 125.968L130.855 124.612L131.308 125.087C130.403 126.341 129.46 127.595 128.479 128.815L128.329 128.543ZM154.122 84.32C153.745 84.7944 153.33 84.5233 152.84 84.32H154.122ZM148.013 78.8302C148.39 79.5757 148.013 79.8468 148.013 80.4229C148.013 80.084 147.711 79.779 147.523 79.4401L148.013 78.8302ZM145.675 86.9293C145.904 87.3253 145.996 87.7738 145.939 88.2171L144.242 89.2676C144.242 89.2676 144.054 88.9626 143.978 88.7932L144.544 88.1832C144.441 88.0321 144.352 87.8734 144.28 87.7087L145.373 87.2682L145.675 86.9293ZM144.959 82.3206C144.959 82.6595 145.298 82.9645 145.449 83.2695L145.185 83.6083C145.788 84.6927 142.922 85.6416 142.319 85.9805L142.885 86.9293C142.357 87.4715 141.527 86.9293 140.886 86.7599C142.281 85.2349 143.639 83.7439 144.959 82.2189V82.3206ZM108.568 119.394C109.247 119.97 109.511 119.394 110.228 119.665C109.662 120.105 108.983 119.902 108.229 119.665L108.568 119.394ZM105.929 120.681C106.268 121.19 106.645 121.698 107.022 122.206L107.513 122.613L107.173 122.918L105.325 121.935C106.645 123.088 103.817 124.68 103.063 125.324L102.459 124.985C103.063 124.545 102.874 123.731 102.912 123.054C103.892 122.206 104.797 121.596 105.816 120.681H105.929ZM100.913 122.986C100.732 123.118 100.506 123.19 100.272 123.19C100.039 123.19 99.8125 123.118 99.6312 122.986L99.141 122.579L100.913 122.986ZM97.3309 124.782C98.9625 124.5 100.65 124.641 102.195 125.189C103.025 125.832 102.497 125.765 101.969 126.137C101.29 125.595 101.592 125.629 101.102 126.137C101.781 126.714 96.0865 130.916 94.9929 131.526L93.8616 130.712C95.6729 129.115 96.8631 127.035 97.2555 124.782H97.3309ZM92.768 133.051L93.5222 132.474C95.0306 133.559 91.9006 134.474 90.9202 134.406C91.4104 134.033 91.4858 134.406 90.6939 133.728L92.768 133.051ZM82.4731 142.2L83.1519 142.641C81.5681 143.691 82.096 145.115 78.7399 144.877C79.8712 143.996 81.0779 143.081 82.36 142.2H82.4731ZM75.7231 149.825C75.0443 150.333 74.6672 149.825 73.8753 149.249L73.1211 148.808L75.7231 149.825ZM74.7049 151.587L73.6113 152.367L72.744 152.095L72.3669 152.367C71.1979 151.689 71.8389 151.757 72.3669 151.418L71.9143 151.113L74.7049 151.587ZM65.4282 168.328L64.5232 167.989C64.4101 167.582 64.4478 167.887 65.3151 168.328H65.4282ZM71.5372 150.909L71.311 151.079L70.5191 150.672L71.5372 150.909ZM66.7481 152.299C67.9444 151.948 69.095 151.482 70.1797 150.909C71.1601 151.485 71.047 151.282 70.5568 151.621C72.3669 152.604 69.878 154.196 69.9911 155.01C69.1615 155.484 67.0875 152.977 66.6349 152.299H66.7481ZM52.0035 168.429L50.5705 170.734C49.2506 170.124 49.4769 170.158 48.9489 169.548L52.0035 168.429ZM49.7409 164.261L50.6836 164.736L50.3065 165.007L49.4015 164.532C48.8735 164.905 48.7981 163.956 48.7981 163.787L47.8554 163.312L49.7409 164.261ZM46.4978 166.599C46.3896 166.708 46.2622 166.799 46.1207 166.87L47.1012 167.345C46.5355 167.752 45.3665 167.345 44.0467 167.345L46.4978 166.599ZM33.337 176.766C35.939 175.037 37.8622 173.038 40.5019 171.14L41.5201 171.615L41.1807 171.886C42.8776 172.699 41.1807 173.038 40.8036 173.411L44.2352 174.597C42.9908 175.58 43.2547 177.342 45.2157 179.206C44.914 179.477 44.386 178.935 44.1598 178.731L43.1039 178.291L41.9726 180.663C40.2757 182.12 36.6555 183.408 40.8036 186.288L36.9195 187C38.3902 187.61 38.1262 187.373 37.7491 187.745L38.8804 188.22C38.7253 188.427 38.5485 188.619 38.3524 188.796C36.5047 188.05 36.8818 187.542 36.9195 187L35.7882 186.525L35.4865 186.796C33.9781 186.153 34.4306 186.22 34.0535 186.593L35.2225 187.068C34.3929 187.949 36.2407 190.456 35.5996 191.71L33.1485 190.761C32.8845 189.745 32.5828 188.762 32.2811 187.779L33.6387 183.611C33.9781 182.222 31.1121 179.375 33.6387 178.833H34.0912C36.3538 179.849 34.0912 178.257 33.6764 177.782C34.0912 177.477 33.8272 177.308 33.1485 176.732L33.337 176.766ZM27.0017 185.305C28.661 186.017 28.397 186.254 28.7364 186.864C27.9388 186.611 27.2342 186.166 26.7001 185.577L27.0017 185.305ZM27.3411 195.302C26.6246 193.1 25.7196 190.829 25.1917 188.525H30.1694C32.2434 189.406 31.5646 190.592 32.2811 191.439L30.3579 194.828L31.7155 198.217C31.0744 199.267 30.5465 200.385 30.0185 201.605C28.8118 203.3 25.2671 203.063 23.193 204.181L21.8355 203.978L22.0617 203.639C21.1611 203.42 20.3495 202.973 19.7237 202.351C20.4025 201.673 21.119 201.029 21.7978 200.385C21.8355 198.454 20.1762 193.811 27.3034 195.268L27.3411 195.302ZM9.91911 218.075C12.6719 217.126 12.5588 215.296 14.2935 213.602L16.82 211.738C17.4234 209.772 16.2921 207.807 21.0059 207.671C18.9318 206.892 19.2335 206.316 19.0826 205.74C16.7069 204.825 18.4039 205.062 19.5352 205.096L19.95 204.452L23.721 206.248L21.7978 206.722C23.9849 207.536 23.9472 208.62 24.8523 209.433C23.9872 210.66 23.5279 212.082 23.5279 213.534C23.5279 214.986 23.9872 216.408 24.8523 217.634L26.2098 218.075L23.6455 219.973L19.5729 218.583L18.0645 218.109L17.7251 218.786C19.9123 219.532 19.4974 220.108 19.95 220.718L22.7028 221.633C22.6965 221.746 22.6965 221.859 22.7028 221.972C18.9318 220.752 18.1399 222.514 18.9318 223.429L17.4611 226.818L15.7264 226.648C15.915 226.208 16.2921 226.445 14.4443 225.835C12.7851 223.26 11.239 220.583 9.8814 218.041L9.91911 218.075ZM13.9541 242.372C14.1803 241.457 9.84369 238.679 7.31712 237.188C7.36196 236.936 7.42494 236.687 7.50567 236.442C9.73056 237.12 8.90094 236.611 10.5602 236.95C12.2194 237.289 11.7669 236.95 11.2767 236.476C8.52384 233.087 12.1063 231.969 12.7474 229.698C12.4457 227.97 12.144 226.31 11.8046 224.547L13.2376 225.022C12.8982 225.801 14.9722 227.021 15.5379 227.902C16.82 230.003 17.8005 232.985 16.179 234.341C15.2739 236.442 17.1594 240.712 13.9164 242.338L13.9541 242.372ZM35.2602 212.619L34.0158 212.246C33.6764 211.772 33.9781 212.144 35.2225 212.585L35.2602 212.619ZM16.0281 272.465L12.9736 269.076C11.8046 266.738 9.76827 263.959 9.20262 261.858C8.10903 259.248 8.90094 257.147 5.77101 254.301C7.88651 254.055 10.0285 254.055 12.144 254.301L13.7655 253.488L15.3116 253.86L16.6692 255.792C17.0086 257.927 17.2348 260.028 17.8005 262.197C21.9109 263.044 19.1581 262.197 22.4388 263.518C22.4388 265.009 22.4388 266.5 22.4388 267.991C20.1932 267.408 18.0935 266.442 16.2544 265.145C16.2356 265.416 16.2356 265.687 16.2544 265.958L17.8005 266.297C17.8005 267.144 19.3843 267.788 20.5156 268.703C22.9291 270.703 20.1008 271.956 16.0281 272.465ZM22.3257 295.949C15.5002 295.237 13.2753 290.662 11.0127 289.171C11.3898 287.579 11.7292 286.02 12.0686 284.427L15.3494 284.935C15.3494 285.783 18.5547 285.545 20.2894 285.647C20.2894 286.528 20.591 287.409 20.7042 288.29C21.5715 290.73 22.6651 293.204 23.7587 295.678H22.0994C22.1673 295.773 22.243 295.864 22.3257 295.949V295.949ZM18.0645 280.53L19.686 280.767C19.686 281.479 17.9513 281.784 16.5561 282.021L18.0645 280.53ZM21.6092 283.614C25.8704 284.19 25.6065 289.273 25.9459 290.628L24.2866 290.425C24.2866 290.154 24.2866 289.849 24.2866 289.544H22.6651C24.3243 287.646 22.6651 285.613 21.8355 283.614H21.6092ZM28.3593 306.793C27.3034 302.726 26.1344 298.694 25.4179 294.729L25.9459 294.051C27.1149 295.779 28.3216 297.44 29.5283 299.236C29.5283 301.473 29.7546 303.709 29.7923 306.013C30.1317 306.556 29.7546 306.556 28.5101 306.793H28.3593ZM25.6819 318.857C25.3048 317.942 22.9668 317.095 21.1567 316.248C20.855 315.265 20.5156 314.282 20.2139 313.333L23.7587 313.537C24.8523 315.333 26.0967 317.129 27.5297 318.925L25.6819 318.857ZM32.9976 315.468L30.7727 314.011C30.2448 312.52 29.1135 310.622 30.7727 309.233C33.6387 309.233 34.2798 314.214 34.5437 315.367L32.9976 315.468ZM31.2253 308.962C31.5456 308.782 31.887 308.634 32.2434 308.521C32.5828 308.928 33.1485 308.86 31.3761 308.792L31.2253 308.962ZM29.3775 322.822C29.0381 322.009 28.6987 321.195 28.397 320.382H30.1694C30.4333 321.026 29.7546 320.856 32.168 320.89C32.3188 321.771 31.1121 322.313 29.3775 322.822ZM30.2825 273.142C28.3188 265.769 27.5943 258.173 28.133 250.607L29.6037 250.912C29.6037 251.183 29.6037 251.42 29.6037 251.658L31.0744 251.996C30.8482 253.657 29.3775 255.385 32.0549 257.588C32.0549 259.621 29.9431 262.027 33.337 264.365C34.5437 263.552 35.7127 262.705 36.8818 261.858C36.0144 259.282 34.8454 256.639 34.2043 254.097C33.9613 250.437 33.214 246.817 31.9795 243.321C30.735 241.491 29.6414 239.695 28.5478 237.865C28.9565 232.345 29.839 226.862 31.1875 221.464C31.6401 219.701 35.1848 219.803 36.4292 218.549C38.0707 216.947 39.096 214.912 39.354 212.747C39.6119 210.581 39.089 208.398 37.8622 206.519C36.9195 206.18 38.4656 205.062 38.2393 204.316C37.4851 202.046 39.4083 200.521 40.5019 198.657C41.8595 196.048 43.8958 193.472 45.5928 190.829C47.2897 188.186 48.3833 183.069 53.1348 182.018C53.8512 181.307 53.1348 182.865 53.5496 183.204C57.0566 183.509 67.8417 167.514 70.4059 165.583C68.9353 164.871 69.0107 165.583 68.5582 165.956L67.3892 165.651C68.445 165.176 69.4632 164.668 70.4814 164.159C71.7635 162.194 72.9702 160.228 74.2524 158.263L88.0919 146.199C88.6199 145.725 89.7135 145.962 90.3545 146.436L93.673 143.895L93.0319 143.488L92.3532 144.03L91.0333 143.217C92.2023 142.302 93.2959 141.387 94.5026 140.506L95.106 140.912L94.0878 141.726L94.7289 142.132C95.2191 140.946 95.7093 139.76 96.1619 138.744C97.3686 137.49 107.965 129.357 107.89 128.984C107.814 128.611 107.89 129.662 107.89 129.967L107.211 130.509C108.154 131.254 108.87 129.933 109.36 129.492C111.17 127.764 111.284 125.426 113.131 123.562C116.035 120.173 120.9 117.97 122.672 114.04C125.801 111.709 128.657 109.098 131.194 106.245C136.097 101.738 140.848 97.2312 145.223 92.6902C146.92 90.9959 148.692 87.9798 150.653 87.4376C149.107 89.1998 147.711 90.8264 146.128 92.6225C146.769 93.7069 148.277 92.3852 148.88 91.9786L149.144 92.4869C148.315 93.4358 147.787 94.7235 146.769 95.164C145.751 95.6046 146.769 96.7229 146.769 97.5701C145.637 98.8239 143.94 99.2645 142.771 100.756C138.397 105.771 133.759 110.617 129.045 115.497C126.82 117.462 124.708 119.936 122.295 121.766C120.9 122.749 118.524 124.274 118.147 125.9C116.073 127.696 111.284 130.983 110.605 133.254C108.078 135.524 103.44 138.303 103.063 141.489C100.385 143.759 97.4063 145.758 94.9174 147.758C93.3713 149.486 91.8629 151.147 90.4299 152.943C88.997 154.739 86.4327 155.315 86.6589 157.111C85.0751 158.568 81.0402 159.483 81.2664 161.652C79.8334 163.312 78.325 165.041 76.8166 166.599L76.4773 168.09C76.7533 168.257 77.0433 168.404 77.3446 168.531C75.9116 169.853 71.9143 170.259 72.8194 172.53L71.4618 175.139C69.5009 176.257 67.3137 177.308 65.3528 178.528C63.5804 180.697 61.5818 182.764 59.998 184.933C58.9044 186.186 56.9435 187.305 57.5845 188.999C55.8122 191.032 50.5705 194.15 52.2297 196.895C51.0607 198.352 48.4587 199.979 49.7032 201.978C48.8358 202.554 47.9308 203.13 46.988 203.673L46.7618 203.978C47.5659 204.217 48.3093 204.597 48.9489 205.096C47.5537 207.095 42.576 210.62 45.1779 213.432C44.3483 214.957 41.8218 216.448 43.8581 218.549L42.6137 221.125L43.9335 221.498C44.1221 221.091 43.6318 221.057 45.4042 221.498C44.8386 222.717 41.8595 222.989 41.0676 224.31C47.6668 226.106 42.9531 228.648 44.8386 230.342C43.9712 232.647 43.3679 235.053 42.576 237.425L41.1807 237.12C41.6332 235.73 42.048 234.375 42.4628 233.019L41.1053 232.68C40.2721 236.692 39.6929 240.742 39.3706 244.812C39.0689 246.778 36.5047 249.624 39.7854 251.963C39.7854 253.928 38.0508 256.266 40.7282 258.503C40.7282 262.129 40.9167 265.857 41.2938 269.652C41.6709 270.601 42.048 271.516 42.4628 272.465C42.7268 275.413 40.0871 279.479 45.2534 282.631C45.5551 284.732 43.3679 287.274 46.6487 289.409C48.8916 296.729 51.8053 303.87 55.3597 310.758C56.3778 313.401 57.9994 320.924 62.9017 322.652C63.7313 324.211 64.8249 325.77 65.7676 327.363C85.4522 359.082 122.785 390.936 194.66 410.354C220.115 417.301 250.547 421.605 281.62 425.603C292.405 427.128 304.585 426.722 315.295 427.908C348.11 429.088 380.972 427.168 413.341 422.181C425.86 419.876 442.641 412.861 457.009 416.081L458.065 415.708L459.573 417.097C412.624 432.415 351.986 435.431 297.081 432.415C273.889 431.195 248.623 430.517 230.334 424.451L229.203 425.671L228.034 425.468L226.865 426.688C231.616 427.399 236.745 430.076 242.627 428.958C279.168 433.635 320.386 439.328 363.299 436.413C363.299 436.888 363.299 437.362 363.563 437.837H362.168C362.658 440.683 353.382 439.734 351.081 439.599C332.226 439.938 313.371 439.294 295.007 438.006C282.072 437.566 269.251 436.854 256.806 435.668C227.016 430.144 195.301 425.841 170.828 417.911C141.455 408.683 114.318 394.488 90.8825 376.093C82.6251 369.519 75.0518 362.283 68.2565 354.473C64.7117 350.576 59.5078 346.204 60.7145 342.239C63.3069 344.988 66.4384 347.285 69.9534 349.017C75.0545 355.141 80.6239 360.939 86.6212 366.368C88.7447 368.652 91.6251 370.267 94.842 370.976L95.37 371.383C97.6326 370.739 93.2959 367.994 92.3909 367.079C83.5189 359.757 75.5765 351.574 68.709 342.68C64.3369 338.747 60.303 334.521 56.6418 330.04H54.8694C56.7172 333.429 59.2815 337.021 61.5441 340.511L57.7731 340.952C43.7323 320.179 34.3307 297.147 30.094 273.142H30.2825ZM423.749 439.599C425.634 439.26 424.88 438.887 426.049 440.785C415.264 442.751 404.102 444.174 392.789 445.563C391.771 442.717 418.507 439.565 423.56 439.599H423.749ZM400.482 434.211C400.482 432.788 417.79 431.263 420.845 430.449L421.788 431.906L418.809 434.075C416.018 434.312 401.424 435.77 400.293 434.211H400.482ZM386.831 437.159C381.061 437.769 372.086 438.311 371.747 437.362C372.538 434.109 384.53 436.38 386.642 437.159H386.831ZM40.2757 330.989C40.2757 329.87 40.2757 328.718 40.2757 327.6L40.5396 328.074H42.312C41.7463 328.989 41.0299 330.006 40.2757 330.989ZM36.3161 323.33C39.8608 324.381 38.6164 323.601 37.372 325.228L36.3161 323.33ZM35.5619 336.14L36.0898 337.122C37.1843 337.128 38.2589 337.386 39.21 337.873C40.1611 338.359 40.9567 339.058 41.5201 339.901C40.2882 339.901 39.0312 339.969 37.7491 340.105C34.374 337.859 30.7764 335.896 27.0017 334.242C27.0017 332.175 29.7546 330.853 32.0172 329.193H35.7882C36.0144 329.735 38.805 333.09 40.615 331.497H44.386C44.8386 333.564 45.5173 335.665 46.1207 337.8H44.2729L42.576 334.92L40.6905 335.089C40.9921 335.767 38.0131 336.004 35.5619 336.14ZM53.1725 372.366L51.1361 367.452L50.2688 366.435C56.6418 365.588 57.5091 371.214 55.6613 372.535C55.0203 371.857 55.7745 371.925 53.1725 372.366ZM113.508 413.539C110.831 414.522 111.812 414.42 110.643 413.844L108.606 414.556L107.739 414.115L113.772 411.98C114.451 412.285 115.055 412.794 113.471 413.505L113.508 413.539ZM190.588 441.531C190.492 441.197 190.492 440.847 190.588 440.514L191.87 440.785L190.588 441.531ZM204.654 444.919C202.843 444.58 203.786 444.343 201.788 445.767C197.564 444.885 192.285 444.14 190.852 442.005C193.838 442.205 196.841 441.918 199.714 441.158L206.162 443.801L204.654 444.919ZM364.996 459.491C350.478 458.813 331.812 460.914 316.992 459.186L307.602 457.288L298.023 456.644C295.912 456.644 296.176 457.051 297.081 455.255C294.328 455.255 297.081 453.832 298.325 452.544H299.871C300.625 450.748 300.965 451.222 298.891 451.121C299.117 450.68 299.306 450.206 299.494 449.765L306.621 451.426C307.451 449.189 308.054 450.07 310.166 450.138C310.355 449.697 310.468 449.223 310.619 448.783H309.11C309.789 446.546 284.372 446.614 279.847 446.038C279.621 446.478 279.357 446.919 279.093 447.359C281.77 447.563 278.414 450.002 276.68 451.29C276.416 451.731 276.152 452.171 275.85 452.612L289.84 453.493C289.614 453.967 289.35 454.408 289.124 454.848H290.708C290.255 455.763 289.727 456.644 289.237 457.526C277.396 457.085 254.996 458.271 262.048 447.359C258.277 447.054 253.299 448.681 248.85 448.071C236.707 446.512 225.96 443.462 214.458 441.022L215.816 439.87L219.813 440.548C221.849 438.616 240.139 444.343 242.439 442.784C243.269 440.006 220.907 438.142 215.325 437.837C211.14 438.21 206.916 438.548 202.693 438.853C205.332 436.888 207.067 437.532 209.405 437.396C211.705 435.499 208.802 435.871 207.029 435.532C201.178 433.883 195.097 432.982 188.966 432.855C178.634 433.194 166.642 434.956 156.95 433.397L158.798 432.449C156.422 431.771 162.984 430.619 165.247 429.873L162.984 429.229C166.076 427.535 162.72 428.416 160.759 428.585L159.665 428.247C155.232 430.51 150.376 432.026 145.336 432.72C143.412 432.076 147.862 429.331 149.559 428.009L148.202 426.044C145.411 427.094 142.545 428.179 139.604 429.195L138.548 428.823L142.319 427.094C140.509 426.45 144.355 425.264 146.882 424.044C142.971 423.179 138.867 423.319 135.041 424.451L133.08 425.298L132.1 424.926C134.362 423.672 136.587 422.418 138.774 421.13L135.833 420.012L130.063 422.486C126.82 421.164 123.615 419.842 120.447 418.487L122.408 417.707L123.351 418.114C126.556 416.826 130.893 417.097 135.757 415.2L137.605 414.386C135.418 413.505 127.612 415.437 124.18 414.658C119.844 412.862 115.62 411.032 111.434 409.168L108.946 407.914L106.947 408.592C108.493 409.371 105.627 410.76 103.402 411.98L101.705 411.099C103.516 410.633 105.081 409.599 106.117 408.185C109.888 406.897 91.7498 404.796 89.1855 403.78L91.2219 403.204L90.4677 402.729C92.0306 402.281 93.655 402.031 95.2945 401.984L96.0487 402.424L98.0474 401.814C89.2232 396.629 76.2133 393.376 69.2369 387.446L71.2733 387.005L70.6699 386.531C73.3473 385.921 72.5177 385.921 73.3096 386.531L75.3082 386.056C77.3823 387.751 80.1728 388.564 85.6785 386.056L87.6394 385.548C83.3405 382.973 78.853 380.431 74.8934 377.754C72.744 374.128 70.3305 370.604 68.5959 367.011L64.8249 367.723L67.6154 370.604L65.6922 370.976L66.1824 371.451L64.2215 371.823L63.6936 371.315L61.7327 371.688C61.7327 369.96 61.7326 368.299 61.5064 366.605L61.0539 366.096C64.2592 365.588 63.7313 366.571 64.3723 367.249C67.6908 366.639 64.3723 364.843 63.5804 363.86L61.6572 364.165C62.336 364.876 60.639 365.181 58.6404 365.758C56.6418 363.487 50.3442 362.911 47.6668 360.539C50.7967 360.2 50.5328 360.776 52.3806 361.081L50.7967 356.371C53.0971 357.523 55.3974 358.675 57.7731 359.759L58.565 360.742L60.4882 360.471L60.0734 359.963C62.6377 359.59 54.9448 354.812 53.0971 353.931C53.8513 354.913 48.685 354.27 46.9503 353.931H45.0271C46.1207 351.491 47.4783 349.085 48.7981 346.713C47.7422 344.442 41.4824 343.697 40.7282 341.121C44.2729 340.918 43.9335 342.206 47.1766 342.239H49.0621C51.8526 346.645 59.3946 360.708 69.5009 362.572C78.6644 372.128 87.0738 383.379 102.912 391.987C110.288 396.58 118.114 400.562 126.292 403.881C133.846 406.182 141.206 408.968 148.315 412.218C164.907 421.706 190.814 427.806 218.078 432.55C228.034 434.177 237.763 440.141 251.301 437.769C266.008 439.497 280.187 442.31 296.327 443.225C299.751 443.814 303.278 443.721 306.659 442.954C317.444 443.327 326.872 445.055 337.317 445.258C352.628 445.529 375.367 441.056 389.395 444.174H390.865C390.865 444.648 391.205 445.123 391.356 445.597C373.293 447.596 349.875 450.68 332.415 447.461C332.415 447.935 332.415 448.41 332.415 448.884C337.355 449.799 342.408 450.714 347.499 451.426H349.083C349.083 453.696 347.725 452.917 345.877 452.985H344.294C344.105 455.119 345.01 454.781 347.046 454.781C348.178 454.171 349.347 453.561 350.44 452.917L357.681 451.256C361.534 451.55 365.212 452.832 368.277 454.95C368.277 455.424 368.277 455.899 368.277 456.373C370.427 456.373 369.823 455.831 370.05 457.729L364.996 459.491ZM461.836 443.089C456.669 446.749 440.416 449.46 431.668 449.698C424.126 450.07 412.209 448.715 406.628 453.086C405.007 449.121 396.032 450.375 392.638 450.104C393.317 452.307 394.787 452.002 396.711 452.747C392.94 453.12 389.546 456.136 386.642 458.102C381.513 457.526 376.46 456.916 371.558 456.272C371.256 453.866 373.971 454.645 376.159 454.51C375.781 452.137 373.066 452.713 370.992 451.934H369.408C369.182 450.104 369.672 450.206 370.54 448.952C373.858 448.681 375.781 450.748 377.516 452.815L380.646 452.578C379.402 447.054 419.714 447.766 423.56 444.377C433.478 443.259 443.509 442.107 453.2 440.582L462.288 439.565L463.646 439.192C465.494 441.463 463.042 442.208 461.836 443.089ZM486.347 438.108C480.766 439.023 473.865 438.311 468.774 439.023C470.698 434.482 491.023 431.94 494.756 427.704C498.188 426.349 501.582 424.959 504.863 423.57L508.634 426.145C500.963 430.091 493.043 433.633 484.914 436.752L486.347 438.108ZM554.225 402.119C550.115 400.188 552.528 402.322 552.792 403.305L548.154 401.069L553.245 399.815L552.566 400.425L554.904 401.509L554.225 402.119ZM553.132 371.62L548.192 369.553C548.833 368.231 551.774 368.333 554.602 368.299C554.263 369.553 553.773 370.671 553.245 371.756L553.132 371.62Z" fill="black"/>
<path d="M486.027 378.607L488 377.937L487.431 377C469.064 382.981 450.66 388.851 432.218 394.609C418.86 397.957 405.654 400.936 392.752 404.016C389.717 404.92 383.19 406.125 383 408L398.596 404.351V405.489L404.516 403.648C417.077 400.3 429.713 396.551 442.463 392.868C450.053 391.228 457.642 389.521 465.232 387.813C467.888 386.206 486.027 379.109 486.027 378.607Z" fill="black"/>
<path d="M509.027 394.624L511 393.968L510.431 393C492.026 399.151 473.66 405.268 455.18 411.143C441.822 414.598 428.617 417.708 415.752 420.853C412.679 421.786 406.19 423.03 406 425L421.596 421.199V422.374L427.554 420.508C440.115 417.052 452.751 413.181 465.501 409.38C473.091 407.652 480.68 405.924 488.27 404.127C491.04 402.434 509.33 395.073 509.027 394.624Z" fill="black"/>
<path d="M389.058 410.122H390V408.648C381.262 408.648 372.562 408.408 363.862 407.997C357.685 406.695 351.696 404.913 345.746 403.371C344.314 403.371 341.414 402.035 341 404.433L348.156 406.318L347.93 407.792H350.717C356.555 408.682 362.468 409.333 368.381 409.916C371.809 410.944 375.274 412.075 378.739 413C380.208 412.349 389.096 410.807 389.058 410.122Z" fill="black"/>
<path d="M543.489 359.148V358.623L537.448 358C536.547 363.004 534.9 367.886 532.547 372.525C526.658 375.443 518.794 378.033 511.994 380.721C511.348 381.475 506.105 382.59 515.793 384L524.227 380.721L530.306 381.508L531.179 380C534.919 377.266 538.342 374.224 541.399 370.918C545.882 369.443 550.821 368 555 366.426C551.999 365.148 546.338 359.41 543.489 359.148Z" fill="black"/>
<path d="M529.451 363.09V362.545L523.448 362C522.552 367.197 520.905 372.268 518.547 377.083C512.658 380.113 504.794 382.837 497.994 385.595C497.348 386.378 492.105 387.536 501.793 389L510.227 385.595L516.306 386.412L517.179 384.846C520.919 382.007 524.342 378.848 527.399 375.415C531.882 373.883 536.821 372.385 541 370.75C537.961 369.354 532.3 363.396 529.451 363.09Z" fill="black"/>
<path d="M520.492 363.192V362.647L514.415 362C513.554 367.204 511.906 372.278 509.516 377.083C503.667 380.113 495.805 382.837 489.006 385.595C488.323 386.378 483.119 387.536 492.804 389L501.274 385.595L507.313 386.412L508.186 384.846C511.936 382.007 515.371 378.848 518.441 375.415C522.923 373.883 527.86 372.385 532 370.75C528.962 369.456 523.303 363.498 520.492 363.192Z" fill="black"/>
<path d="M396.938 389.907V389.062L378.144 387C376.411 395.279 372.392 403.034 366.454 409.55C349.202 413.235 325.822 416.075 305.712 419.219C303.87 420.301 288.196 421.214 318.304 425L343.338 421.315L362.132 423.614L364.425 421.315C374.589 417.871 384.368 413.569 393.631 408.468C406.974 406.879 421.709 405.391 434 403.6C424.152 401.064 405.621 390.854 396.938 389.907Z" fill="black"/>
<path d="M515.603 354.218V353.643L509.562 353C508.643 358.226 506.957 363.323 504.547 368.158C498.658 371.135 490.794 373.842 483.994 376.617C483.348 377.395 478.105 378.545 487.793 380L496.227 376.617L502.306 377.429L503.179 375.838C506.918 373.028 510.341 369.901 513.399 366.5C517.882 364.977 522.821 363.455 527 361.865C524.113 360.41 518.452 354.624 515.603 354.218Z" fill="black"/>
<path d="M541.216 356.292L541.739 355.99L538.529 351.418C533.558 354.036 528.224 356.048 522.666 357.402C516.433 355.217 509.266 351.485 502.697 348.527C501.652 348.527 497.434 345.669 502.287 353.267L510.349 357.032L513.409 361.705L515.276 361.301C520.007 362.148 524.822 362.553 529.646 362.512C533.714 364.663 538.044 367.117 542 369C541.142 366.042 542.746 358.377 541.216 356.292Z" fill="black"/>
<path d="M357.915 405.388V405.87L368.739 410C371.163 405.745 374.815 402.175 379.3 399.675C390.238 400.467 404.684 402.738 417.243 404.287C418.526 403.977 428.068 406.042 410.643 399.09L395.028 397.025L384.241 392.757L382.506 393.618C375.933 393.848 369.395 394.608 362.969 395.889C354.709 394.581 345.657 392.998 338 392C343.394 394.857 352.861 403.461 357.915 405.388Z" fill="black"/>
<path d="M371.755 123.834C372.251 126.678 375.299 119.569 375.299 119.569C375.299 119.569 398.977 106.435 406.314 108.94C407.98 109.549 407.165 112.765 406.846 115.101V118.08C406.846 125.155 407.307 133.82 406.314 134.531C396.673 136.664 388.343 133.651 382.92 135.073C381.319 135.523 379.662 135.763 377.993 135.784C376.008 135.784 376.008 136.969 377.993 139.338C379.234 141.674 380.474 143.807 381.538 145.702C382.601 147.598 384.267 147.598 388.627 144.754C395.832 142.345 403.262 140.599 410.816 139.541C422.406 137.916 433.749 136.495 444.383 135.547C449.31 137.916 451.472 135.547 450.55 129.183C449.629 122.819 447.573 119.975 446.084 120.686C428.361 132.399 426.27 132.399 426.27 132.399C418.401 135.445 414.608 137.307 412.978 134.531C409.433 128.472 416.806 110.463 417.409 106.976C427.546 105.318 459.518 104.844 459.518 104.844C464.693 107.45 468.379 96.3811 468.379 96.3811C467.139 89.2723 458.419 91.168 456.47 91.8789C443.39 94.4854 425.809 96.8211 417.479 98.6491C418.472 81.7235 419.713 71.0943 427.44 71.5682C429.637 68.4877 426.199 65.6442 417.054 63.0377C407.909 60.4312 404.719 62.5976 407.696 69.8079C408.26 76.6353 408.26 83.4944 407.696 90.3217C407.298 94.2476 407.132 98.192 407.2 102.136C393.022 105.216 382.034 107.552 374.165 109.448C371.859 110.076 369.473 110.395 367.076 110.395C364.595 110.395 364.595 111.817 367.076 115.101C368.848 117.904 370.411 120.822 371.755 123.834Z" fill="black"/>
<path d="M561.067 224.168C554.9 220.479 545.649 215.299 533.278 209.274C520.199 204.095 512.011 199.119 508.466 195.023C507.757 194.379 507.261 193.736 506.8 193.296C512.695 186.285 517.648 178.598 521.546 170.413C524.424 163.623 527.986 157.116 532.179 150.982C534.802 148.816 535.05 146.683 532.427 144.957C528.246 143.379 523.834 142.431 519.348 142.147C512.793 142.363 506.307 143.503 500.101 145.532C499.263 141.582 499.85 137.478 501.767 133.887C502.724 131.315 502.759 123.055 503.468 118.079C513.677 115.709 507.722 114.22 526.933 110.327C530.478 109.041 537.567 110.598 537.567 107.348C537.136 104.989 536.899 102.6 536.858 100.206C536.362 98.4791 532.321 98.9192 523.779 101.729C517.611 103.455 506.694 107.111 501.448 108.499C501.93 99.4779 501.93 90.4392 501.448 81.4181C500.987 73.6324 509.281 65.2034 512.082 61.3106C513.251 58.5009 510.168 56.5714 502.795 55.7251C494.713 54.845 491.629 55.9282 492.587 58.941C493.544 65.2034 493.544 79.8948 492.09 103.184C491.658 105.418 491.421 107.683 491.381 109.955C470.965 115.134 460.118 116.386 458.701 116.183C456.326 115.743 457.176 119.907 460.508 126.576C463.84 133.244 465.967 135.885 467.385 133.718C474.613 127.327 483.34 122.684 492.835 120.178C490.059 131.291 485.668 141.979 479.791 151.93C476.06 153.388 472.155 154.4 468.165 154.943C467.471 154.25 466.907 153.449 466.499 152.573C463.876 149.357 461.749 151.084 459.41 158.396C457.07 165.707 457.495 170.277 461.324 172.444C468.505 175.534 474.892 180.086 480.039 185.781C482.312 189.225 485.41 192.102 489.077 194.176C485.435 202.122 479.141 208.692 471.177 212.862C471.177 212.862 470.008 213.438 456.397 218.786C453.994 220.095 451.344 220.935 448.599 221.257C445.054 221.257 439.312 220.716 435.023 220.716C434.739 221.223 435.023 220.716 442.75 222.476C444.487 222.848 447.819 224.067 464.372 220.512C474.059 218.163 483.125 213.909 490.991 208.021C494.075 205.415 497.407 203.045 500.243 200.236C502.65 201.781 504.622 203.867 505.988 206.311C507.354 208.754 508.071 211.48 508.076 214.25C508.076 221.596 509.281 225.048 511.621 225.048C528.118 229.757 545.269 232.04 562.485 231.819C565.569 231.819 567.448 231.412 567.944 230.092C568.44 228.772 565.604 227.181 561.067 224.168ZM499.534 182.938C499.158 183.58 498.679 184.162 498.116 184.664C496.537 183.607 495.168 182.289 494.075 180.771C488.404 175.626 483.123 170.413 477.77 165.877C476.813 165.674 476.565 165.234 476.565 164.793C481.542 159.775 487.89 156.187 494.891 154.435C502.937 152.269 507.226 153.589 508.183 158.768C508.785 165.674 506.127 173.662 499.534 182.938Z" fill="black"/>
<path d="M456.502 199.593C456.75 197.021 456.254 195.7 454.801 195.7C450.689 196.14 439.736 206.736 429.138 209.241C430.363 205.452 431.929 201.771 433.817 198.239C435.731 196.073 437.68 193.906 439.134 192.18C440.587 190.453 441.792 189.167 442.997 187.644C445.159 185.917 444.663 183.988 441.544 182.058C438.737 180.431 435.739 179.124 432.612 178.166C431.655 178.166 431.158 177.929 431.158 177.522H434.526C434.928 177.669 435.359 177.727 435.787 177.693C436.216 177.658 436.631 177.533 437.002 177.325C437.373 177.117 437.69 176.832 437.93 176.491C438.17 176.15 438.327 175.762 438.389 175.356C439.317 171.19 441.219 167.278 443.954 163.914C447.073 158.295 450.228 155.079 452.886 154.199C455.297 152.032 450.228 148.817 436.936 144.721C428.5 142.994 417.654 143.84 404.362 147.09C391.069 150.34 383.094 152.269 380.968 152.032C378.061 152.676 377.423 153.996 379.514 155.925C380.609 164.463 384.591 172.426 390.857 178.606C391.834 179.858 392.964 180.995 394.224 181.991C391.779 186.144 389.118 190.177 386.249 194.076C384.087 197.935 384.831 200.338 388.198 202.064C388.76 202.5 389.413 202.813 390.114 202.984C390.815 203.155 391.546 203.178 392.257 203.052C392.968 202.927 393.642 202.656 394.232 202.257C394.823 201.859 395.316 201.342 395.677 200.744C398.088 198.612 395.394 191.334 403.121 183.988C404.822 182.025 415.243 183.277 419.568 183.074C423.112 183.074 425.133 185.003 425.133 189.099C424.085 191.801 422.717 194.379 421.056 196.784C419.107 199.39 415.917 209.309 411.841 213.201C397.662 216.587 389.687 214.928 377.139 217.06C373.985 217.501 367.002 215.131 366.506 216.214C366.009 217.297 366.754 220.31 370.05 225.489C372.709 230.466 375.863 231.752 379.231 229.822C383.803 227.216 393.409 224.406 407.587 220.953C422.664 217.222 437.298 212.015 451.256 205.416C453.695 204.157 455.563 202.084 456.502 199.593ZM423.183 165.911C419.278 167.963 415.034 169.36 410.635 170.041C404.113 171.531 400.746 171.971 399.789 171.328C396.245 168.315 389.864 159.141 392.275 155.011C393.728 153.285 406.24 150.949 413.967 149.223C421.056 148.14 423.928 154.47 425.842 156.433C426.346 157.212 426.679 158.08 426.822 158.986C426.964 159.891 426.913 160.815 426.671 161.701C426.429 162.587 426.002 163.417 425.415 164.141C424.827 164.864 424.092 165.467 423.254 165.911H423.183Z" fill="black"/>
<path d="M224.121 231.785L220.009 228.4C216.636 221.859 213.827 215.066 211.609 208.089C209.241 200.719 208.257 193.006 208.702 185.308C209.618 178.781 211.27 172.369 213.629 166.182L217.564 164.218V163.778L223.908 163.101L232.522 166.182C235.977 165.252 239.572 164.886 243.155 165.098L257.334 167.062L254.711 148.545L254.108 129.927L244.857 129.487C238.016 131.417 227.453 133.955 212.956 137.205C198.352 140.518 183.981 144.701 169.925 149.73L167.479 148.207C165.482 144.715 164.161 140.908 163.58 136.968L165.636 136.765L169.535 134.565L171.166 134.125L177.723 132.364C180.018 131.889 182.358 131.64 184.706 131.62L193.922 130.943L213.027 128.979L216.11 129.182L222.881 128.742L224.121 128.539H227.418L229.473 128.742C233.465 129.085 237.483 128.48 241.17 126.982C244.936 125.493 249.02 124.889 253.08 125.222L253.293 120.618C252.372 115.779 251.709 110.898 251.308 105.994C250.989 101.526 250.457 96.6176 249.784 91.3368H248.968L221.037 102.338C211.715 106.028 202.358 109.109 192.894 112.02L201.082 108.296L209.163 104.911C209.624 104.471 217.776 100.307 217.776 100.307L224.228 95.7036C224.866 95.2974 229.048 91.2353 229.048 91.2353L240.958 78.0333H241.17C241.095 71.8567 242.566 65.7521 245.459 60.2277L247.338 59.9907L250.386 57.7904C254.356 56.7748 258.291 55.827 262.225 54.9469C266.29 54.0511 270.485 53.8222 274.631 54.2699C274.489 52.6901 275.588 53.1302 277.928 55.59L280.799 57.7904C283.824 59.1229 286.739 60.6732 289.518 62.428C292.56 64.3956 295.293 66.7663 297.635 69.469L299.266 74.5128L296.395 79.9967C291.977 81.8798 287.253 83.0247 282.429 83.3818C277.609 83.7596 272.889 84.9037 268.464 86.7669C266.091 92.8241 264.173 99.0345 262.721 105.351C261.245 112.052 260.215 118.836 259.638 125.662L268.251 125.865L283.244 126.305L290.333 125.865L292.389 126.102H302.668L318.477 127.625L319.682 127.185L340.95 129.182L344.494 128.945C347.613 130.875 350.839 132.669 354.135 134.328C357.555 136.126 360.557 138.567 362.961 141.504L363.777 144.889L361.721 149.053C360.691 149.714 359.534 150.172 358.316 150.398C357.099 150.625 355.846 150.616 354.632 150.373C338.894 145.408 323.191 140.895 307.525 136.833C291.695 132.657 275.383 130.383 258.964 130.063L258.751 135.783L258.964 151.863L262.119 168.856C267.436 170.447 272.752 172.241 277.928 173.798C283.249 175.565 287.991 178.635 291.68 182.701C294.693 189.471 297.423 196.241 299.904 203.012C302.385 209.782 305.008 216.552 307.879 223.322L306.887 224.88H304.405C299.461 222.339 293.99 220.871 288.384 220.58C282.5 220.208 276.616 219.87 270.661 219.599C264.706 219.328 258.184 220.039 252.194 220.479C246.204 220.919 240.001 221.562 233.691 222.442C233.961 223.785 233.879 225.171 233.452 226.476C233.026 227.781 232.268 228.966 231.246 229.923C230.271 230.709 229.128 231.282 227.898 231.604C226.668 231.925 225.379 231.987 224.121 231.785ZM300.719 218.245V217.263C297.976 211.851 295.837 206.178 294.339 200.337C292.875 194.557 290.747 188.949 287.994 183.615C282.592 179.932 276.129 177.933 269.491 177.894L244.857 176.337L238.299 176.777C235.603 181.515 233.395 186.492 231.707 191.638C230.046 196.889 229.152 202.334 229.048 207.819L235.216 208.699L236.031 208.022C248.768 210.978 259.815 213.291 269.172 214.961C278.566 216.654 288.1 217.94 297.848 218.82L301.711 220.005L300.719 218.245Z" fill="black"/>
<path d="M181.094 311.776C177.443 311.786 173.827 311.095 170.46 309.745C168.609 308.325 167.047 306.593 165.853 304.633C164.446 303.062 163.515 301.154 163.159 299.115C163.37 297.922 164.024 296.84 165.002 296.069C165.89 295.228 167.029 294.672 168.263 294.478L169.326 293.496H170.248L170.709 293.665L171.878 293.496C172.766 294.086 173.455 294.909 173.863 295.866C174.126 296.915 174.469 297.945 174.891 298.946L174.572 300.063C173.875 301.133 173.293 302.267 172.835 303.448C172.771 305.259 173.122 307.062 173.863 308.729C177.135 309.684 180.546 310.129 183.965 310.049C185.321 309.952 186.644 309.607 187.864 309.034C189.153 308.402 190.346 307.605 191.409 306.664C192.497 305.699 193.241 304.432 193.536 303.042C193.817 301.615 193.901 300.158 193.784 298.709C193.646 296.413 192.697 294.228 191.09 292.514C186.659 290.28 182.76 288.08 179.286 285.744C175.813 283.409 172.445 281.716 169.397 279.516C168.268 278.081 167.749 276.291 167.944 274.506C168.026 272.812 168.473 271.153 169.255 269.631C169.995 268.222 171.053 266.988 172.352 266.016C173.652 265.044 175.16 264.36 176.77 264.012C177.55 264.012 178.152 263.369 178.577 262.082L182.902 261.202C184.648 261.865 186.302 262.729 187.829 263.775C189.069 264.655 189.707 265.332 189.814 265.84L190.983 268.04C191.317 268.009 191.652 268.077 191.944 268.234C192.236 268.392 192.47 268.631 192.614 268.92C193.376 270.278 193.914 271.739 194.209 273.253L193.748 274.235C192.882 274.717 191.858 274.874 190.877 274.675C189.155 274.477 187.53 273.807 186.198 272.745L185.667 271.29L183.575 269.8C182.93 268.858 182.114 268.032 181.165 267.363L179.003 266.788L175.742 267.634L172.197 268.548C171.417 268.964 170.737 269.532 170.2 270.214C169.663 270.896 169.281 271.677 169.078 272.508C168.888 273.957 168.793 275.415 168.795 276.875C169.027 277.879 169.631 278.768 170.496 279.38C172.552 280.667 174.678 282.054 176.805 283.578C178.924 285.044 181.192 286.303 183.575 287.335L185.418 286.895C188.262 287.671 190.858 289.114 192.968 291.093C194.362 292.627 195.422 294.411 196.088 296.34C196.834 298.284 197.391 300.29 197.754 302.331C197.748 303.342 197.357 304.317 196.655 305.073H196.3V305.31H195.981L195.591 306.021L194.422 306.563V306.935H194.209V307.375L193.358 307.815L193.039 308.323L191.976 308.898L191.196 309.271V309.575C189.802 310.457 188.234 311.056 186.588 311.336C184.785 311.709 182.938 311.857 181.094 311.776V311.776Z" fill="black"/>
<path d="M224.48 313.401C223.489 312.669 222.718 311.7 222.247 310.591L221.184 307.206H222.247C222.796 304.899 223.175 302.557 223.381 300.199C223.577 297.842 223.944 295.501 224.48 293.192C224.529 291.093 223.857 289.036 222.566 287.336L221.184 287.031C219.227 287.799 217.321 288.68 215.477 289.671C213.555 290.699 211.508 291.495 209.38 292.041C208.798 294.659 208.466 297.321 208.388 299.996C208.388 302.975 208.388 305.818 208.388 308.459C208.896 309.699 209.148 311.02 209.132 312.352L207.998 312.656C206.216 309.283 205.259 305.568 205.198 301.79C205.056 297.593 204.879 293.632 204.666 289.908L204.985 289.468L204.666 289.164V278.06L204.985 277.756L204.595 277.18C204.761 274.924 204.843 272.667 204.843 270.41C204.819 268.08 205.315 265.773 206.297 263.64C205.86 261.819 205.529 259.977 205.304 258.122L206.297 255.617L207.076 255.245C208.226 256.34 209.586 257.213 211.082 257.818C212.4 258.328 213.603 259.075 214.626 260.018C215.224 260.636 215.672 261.371 215.942 262.172C216.211 262.973 216.294 263.821 216.186 264.655C215.365 268.325 214.347 271.952 213.138 275.522C211.912 279.087 210.894 282.715 210.089 286.388H210.834L211.153 286.016V285.643H211.543L211.862 285.271V284.966H212.322L212.535 284.526L217.781 283.951C219.862 284.263 221.799 285.158 223.346 286.523C225.426 290.255 226.522 294.415 226.536 298.642C226.612 303.012 227.195 307.36 228.273 311.607L227.493 312.656C226.585 313.177 225.539 313.435 224.48 313.401V313.401Z" fill="black"/>
<path d="M242.839 312.149C239.623 307.917 237.53 303.003 236.742 297.83C235.953 292.571 235.562 287.265 235.572 281.953H236.033V281.649H236.352L237.451 281.209H238.195V280.938H238.904C241.485 282.086 243.873 283.592 245.993 285.406L246.383 287.268C245.892 290.271 244.886 293.176 243.406 295.866C241.942 298.615 241.292 301.693 241.527 304.769C241.863 307.061 242.384 309.324 243.087 311.539L242.839 312.149ZM243.299 274.912L241.456 274.168L240.676 273.795C239.509 272.224 238.667 270.455 238.195 268.582C237.696 266.618 236.946 264.719 235.962 262.929H236.423L237.203 261H237.522C238.878 261.857 240.286 262.637 241.74 263.335C243.261 264.059 244.668 264.982 245.922 266.077C246.544 266.69 247.028 267.417 247.345 268.214C247.662 269.012 247.805 269.863 247.765 270.715C247.201 271.943 246.448 273.083 245.532 274.1L243.299 274.912Z" fill="black"/>
<path d="M273.715 313.535C272.674 313.435 271.712 312.964 271.021 312.215C268.817 308.896 266.954 305.382 265.456 301.721C263.93 297.064 263.153 292.214 263.152 287.334H261.911L258.012 287.605C256.82 286.88 255.882 285.831 255.318 284.593C254.424 282.441 254.002 280.136 254.078 277.822C254.485 277.315 255.033 276.929 255.661 276.707C256.288 276.486 256.968 276.438 257.622 276.57C259.976 278.047 262.544 279.187 265.243 279.955V278.195V277.382C265.34 275.247 265.661 273.126 266.2 271.052C266.73 269.069 267.466 267.141 268.398 265.297V265.027H268.929C270.87 265.947 272.752 266.975 274.565 268.107V268.412H274.884C275.447 269.206 275.687 270.169 275.558 271.12C275.32 272.821 274.691 274.451 273.715 275.893C272.53 277.917 271.794 280.153 271.552 282.46C273.17 283.449 275.122 283.813 277.011 283.475C278.767 283.153 280.479 282.642 282.115 281.952H285.412L281.654 284.389C281.052 284.829 279.563 285.879 277.259 287.775C276.554 288.068 275.768 288.134 275.02 287.963C274.272 287.792 273.602 287.393 273.112 286.827L270.95 287.707C270.524 289.061 270.135 290.313 269.816 291.43C269.497 292.548 269 294.071 268.398 296.034C267.702 298.415 267.702 300.932 268.398 303.312C269.08 305.506 270.095 307.593 271.411 309.507H272.439L273.75 309.27V308.999L275.877 307.07H276.586L278.5 305.445V305.14L280.272 304.057L281.229 303.617V303.312H281.548L285.093 299.25L285.943 298.302C284.809 300.604 283.746 302.872 282.753 305.072C281.517 307.281 279.926 309.291 278.039 311.03L276.338 312.113L275.877 313.095C275.21 313.423 274.463 313.575 273.715 313.535V313.535Z" fill="black"/>
<path d="M297.355 312.656C295.449 312.155 293.753 311.103 292.499 309.643C291.791 308.622 291.319 307.468 291.116 306.258C290.833 305.006 290.655 303.855 290.478 302.873L290.939 301.824H291.258L291.577 300.741L292.038 299.793H292.428L292.64 299.116H292.889V298.608L293.349 298.371H293.81V297.728V297.423H294.342V297.491H295.122L294.803 296.374V296.915H295.441V296.543H295.972V296.103L296.291 295.663H297.213V295.054L297.745 295.494L298.064 294.546V294.309H298.312H298.702L299.375 294.512L300.545 294.106H301.395L301.927 293.598L303.699 292.65L303.451 293.158H304.089L304.373 292.853H304.834H306.145L307.067 292.278V292.853L307.74 293.226L308.449 292.65L309.052 292.346L309.229 293.226C310.399 293.666 311.072 293.226 311.214 292.21C310.551 289.891 309.338 287.748 307.669 285.948C305.72 286.455 303.664 286.896 301.502 287.302C299.34 287.708 297.213 288.046 295.086 288.317C293.99 288.145 292.99 287.619 292.251 286.828C291.383 285.259 290.705 283.601 290.23 281.886L290.549 281.378L291.01 281.175V280.938L291.648 280.498H292.321L292.782 280.125H293.456L293.775 279.55H294.625L294.909 279.11C295.064 278.999 295.243 278.92 295.432 278.88C295.621 278.839 295.817 278.836 296.008 278.873V278.67H297L298.241 278.433C299.602 277.99 301.022 277.74 302.459 277.688C304.586 278.771 306.677 279.956 308.768 281.242C310.979 282.651 312.961 284.362 314.652 286.32C315.077 288.859 315.538 291.973 316.07 295.663C316.621 299.028 316.621 302.454 316.07 305.818H316.921L318.906 305.006L317.062 305.514H319.083L319.863 303.957H319.083V304.634L319.933 304.837V304.532H320.182L320.465 303.652H320.855V302.839L321.635 301.959L321.883 301.147H322.167V300.707V300.199V299.454C322.494 299.017 322.778 298.553 323.017 298.066V298.066L323.372 297.796H323.62V297.322L324.754 296.543H324.931L325.144 296.171H325.534V295.663H326.526C325.905 296.02 325.382 296.514 325 297.102C324.618 297.691 324.388 298.358 324.329 299.048C324.046 300.753 324.046 302.489 324.329 304.193C324.94 305.253 325.382 306.394 325.64 307.579C325.25 308.357 324.825 309.102 324.435 309.779C323.525 310.54 322.553 311.23 321.529 311.844C320.627 312.408 319.555 312.67 318.48 312.589C317.46 312.641 316.446 312.402 315.568 311.902C314.69 311.401 313.989 310.662 313.553 309.779C313.341 308.019 313.199 306.089 313.163 304.024C312.384 305.074 311.675 306.021 310.966 306.868C310.26 307.744 309.381 308.48 308.378 309.034C306.683 310.128 304.878 311.057 302.991 311.81C301.204 312.499 299.276 312.789 297.355 312.656V312.656ZM296.433 310.219V308.899C296.73 308.831 297.007 308.702 297.246 308.52C297.485 308.339 297.679 308.11 297.815 307.849V307.849H298.95L299.34 307.409L300.438 306.969L301.502 306.326L302.671 305.514V305.277H303.132H303.983H304.905V304.769H305.755V304.261C306.601 303.334 307.305 302.297 307.847 301.181C308.404 300.055 309.12 299.008 309.973 298.066V296.882L309.442 296.543C306.794 296.666 304.155 296.926 301.537 297.322C299.129 297.697 296.948 298.901 295.405 300.707C293.973 302.188 293.056 304.056 292.782 306.055L293.491 308.56C294.634 308.794 295.667 309.376 296.433 310.219V310.219Z" fill="black"/>
<path d="M344.352 313.535C343.312 313.435 342.35 312.964 341.658 312.215C339.455 308.896 337.592 305.382 336.093 301.721C334.575 297.086 333.798 292.259 333.789 287.402H332.443L328.366 287.605C327.174 286.88 326.236 285.831 325.672 284.593C324.778 282.441 324.356 280.136 324.432 277.822C324.839 277.315 325.388 276.929 326.015 276.707C326.642 276.486 327.322 276.438 327.976 276.57C330.33 278.047 332.898 279.187 335.597 279.955V278.195V277.382C335.694 275.247 336.015 273.126 336.554 271.052C337.084 269.069 337.82 267.141 338.752 265.297V265.027H339.284C341.224 265.947 343.106 266.975 344.919 268.107V268.412H345.203C345.503 268.796 345.72 269.233 345.842 269.698C345.963 270.163 345.987 270.646 345.912 271.12C345.674 272.821 345.045 274.451 344.069 275.893C342.885 277.917 342.149 280.153 341.907 282.46C343.524 283.449 345.477 283.813 347.365 283.475C349.121 283.153 350.833 282.642 352.469 281.952H355.766L352.008 284.389C351.406 284.829 349.917 285.879 347.613 287.775C346.908 288.068 346.122 288.134 345.374 287.963C344.626 287.792 343.956 287.393 343.466 286.827L341.304 287.707C340.879 289.061 340.524 290.313 340.17 291.43C339.815 292.548 339.354 294.071 338.752 296.034C338.028 298.411 338.028 300.935 338.752 303.312C339.407 305.51 340.411 307.6 341.729 309.507H342.757L344.069 309.27V308.999L346.195 307.07H346.904L348.818 305.445V305.14L350.591 304.057L351.548 303.617V303.312H351.867L355.411 299.25L356.262 298.302C355.128 300.604 354.064 302.872 353.072 305.072C351.933 307.26 350.451 309.27 348.677 311.03L346.975 312.113L346.514 313.095C345.846 313.418 345.101 313.57 344.352 313.535Z" fill="black"/>
<path d="M379.514 312.724L376.217 311.133C373.953 310.211 371.568 309.585 369.128 309.271L363.35 311.336L362.252 310.896C360.799 309.281 359.724 307.388 359.097 305.345L360.125 305.006V304.701L364.13 303.957L364.414 304.329L366.292 303.957C369.005 304.314 371.565 305.367 373.7 307.003C374.713 308.01 375.916 308.826 377.245 309.407H378.521V309.034H379.584V308.764L380.612 308.391L381.676 308.019L382.066 307.646V307.206V306.902H382.526L382.845 306.259L383.235 300.809V299.387C381.101 297.082 378.395 295.325 375.366 294.275C373.126 293.732 371.111 292.551 369.589 290.89C368.886 289.925 368.247 288.919 367.675 287.877C367.019 286.619 366.855 285.178 367.214 283.815L367.498 283.443L367.887 282.867L368.596 282.123L368.88 281.75L369.376 281.48H369.589L369.979 281.175V280.803L370.369 280.599H370.652V280.295L371.29 279.922V279.618H372.07L373.133 279.178L373.913 278.907V278.602L376.465 277.925V277.519L380.329 277.316L380.612 277.519L381.002 276.876L381.995 276.571C383.767 277.451 385.291 278.298 386.638 279.076C388.099 279.948 389.464 280.957 390.714 282.089C391.586 283.143 392.346 284.277 392.983 285.474C393.635 286.767 394.192 288.101 394.649 289.468L393.266 291.533L390.395 292.617L388.233 291.973C387.199 291.029 386.535 289.775 386.355 288.419C386.258 287.711 386.013 287.029 385.636 286.413C385.258 285.796 384.755 285.259 384.157 284.831C383.412 283.961 382.423 283.311 381.306 282.957C380.189 282.603 378.989 282.561 377.848 282.834L375.366 283.409C374.035 285.076 373.235 287.074 373.062 289.164C373.694 290.852 374.732 292.375 376.092 293.609C377.453 294.844 379.098 295.756 380.896 296.272C384.895 297.687 388.187 300.492 390.112 304.126L390.714 306.462C390.315 307.917 389.603 309.278 388.623 310.456C387.294 311.345 385.785 311.956 384.192 312.25C382.651 312.543 381.085 312.701 379.514 312.724V312.724Z" fill="black"/>
<path d="M425.243 311.031H424.463L423.471 307.206H422.478C420.578 308.576 418.408 309.566 416.098 310.118C413.804 310.819 411.417 311.206 409.009 311.268L406.244 309.711C404.338 307.104 402.823 304.256 401.743 301.249C400.443 297.568 399.726 293.723 399.616 289.841L399.899 289.468V289.028L399.616 288.148L399.793 287.336V286.76L400.573 283.003H400.892C400.89 281.577 401.281 280.176 402.026 278.941H402.593V278.433L403.586 278.23C405.921 279.148 408.059 280.467 409.895 282.123C410.767 283.252 411.25 284.612 411.277 286.016C410.214 288.069 409.033 290.506 407.733 293.327C407.063 294.867 406.718 296.518 406.718 298.185C406.718 299.852 407.063 301.503 407.733 303.043C407.726 304.848 408.151 306.631 408.973 308.256H410.817C412.376 308.019 414.361 307.782 416.984 307.579C419.063 307.56 421.092 306.972 422.833 305.886V302.501C422.833 300.335 422.833 297.593 423.258 294.241C423.683 290.89 423.683 288.148 423.683 285.982V285.271L424.073 283.578C424.932 283.766 425.743 284.114 426.461 284.602C427.179 285.09 427.789 285.708 428.256 286.422C428.619 288.126 428.797 289.862 428.788 291.601C428.101 295.655 427.71 299.749 427.618 303.855C427.818 306.449 426.968 309.018 425.243 311.031V311.031Z" fill="black"/>
<path d="M443.5 282.5L438.5 286.5C438.5 286.5 440.22 287.913 441.5 288.5C445.792 290.47 453.5 287 453.5 287C453.5 287 445.462 299.33 441.5 303.5C441.5 303.5 441 305.5 441 307V309L443.5 311.5H445L453 310.5C453 310.5 457.213 309.367 460 308.5C464.5 307.554 470.586 303.805 471.5 303.5C473 303 465.5 300 464 301C462.5 302 453.334 305.876 446.5 309C445 308.167 442.5 306.946 442.5 306C442.5 305.054 448 303 453 298C458 293 463 283.5 463.5 282.5C464 281.5 460 281 460 281H455L443.5 282.5Z" fill="black"/>
<path d="M500.316 311.032H499.536L498.544 307.207H497.516C495.631 308.58 493.472 309.571 491.171 310.118C488.876 310.816 486.49 311.204 484.082 311.269L481.282 309.712C479.402 307.095 477.899 304.249 476.816 301.249C475.52 297.566 474.792 293.723 474.653 289.841L474.972 289.469V289.029L474.653 288.148L474.972 287.471V286.896L475.752 283.138H476.071C476.052 281.711 476.445 280.305 477.206 279.076H477.773V278.569L478.801 278.365C481.135 279.283 483.274 280.603 485.11 282.258C485.982 283.388 486.465 284.748 486.492 286.151C485.429 288.205 484.247 290.642 482.948 293.463C482.278 295.003 481.933 296.653 481.933 298.321C481.933 299.988 482.278 301.639 482.948 303.178C482.941 304.983 483.365 306.766 484.188 308.391H486.031C487.556 308.154 489.576 307.917 492.199 307.714C494.276 307.684 496.302 307.098 498.048 306.022V302.637C498.048 300.47 498.048 297.728 498.473 294.377C498.898 291.026 498.898 288.284 498.898 286.117V285.406L499.288 283.714C500.142 283.903 500.948 284.251 501.66 284.739C502.372 285.227 502.975 285.845 503.435 286.557C503.81 288.261 504 289.996 504.002 291.737C503.316 295.791 502.925 299.885 502.833 303.991C502.957 306.557 502.057 309.073 500.316 311.032V311.032Z" fill="black"/>
<path d="M543.172 313.233L542.427 312.962C540.405 310.251 539.181 307.071 538.883 303.755L539.273 294.683H539.627L540.194 291.805C538.723 290.691 536.896 290.094 535.019 290.113C533.998 290.334 533.064 290.827 532.325 291.534C531.219 294.595 530.645 297.808 530.624 301.047C530.598 304.317 530.023 307.563 528.922 310.66L527.682 310.965C526.406 308.342 525.833 305.457 526.016 302.57V302.197L525.697 294.378C525.945 292.956 526.193 291.602 526.477 290.316C526.722 288.963 526.841 287.592 526.831 286.22H525.697L520.38 287.608C519.948 290.828 519.344 294.026 518.572 297.188C517.722 300.776 516.871 304.669 516.056 308.9L516.906 311.608H515.595C512.968 307.925 511.56 303.573 511.554 299.117C511.271 293.802 511.022 289.266 510.81 285.577C511.022 284.324 511.341 282.902 511.731 281.379C512.121 279.856 512.618 278.4 513.114 276.978L513.433 276.234L513.964 275.489L514.354 274.406H514.744C517.013 275.624 519.281 276.843 521.621 277.994C522.032 278.54 522.312 279.166 522.44 279.827C522.569 280.488 522.543 281.168 522.365 281.819C524.361 282.393 526.315 283.094 528.214 283.918C529.534 284.527 530.66 285.462 531.475 286.626L531.864 290.519H532.325L532.715 289.943H533.176L534.098 288.759H534.487L534.7 288.454L535.09 288.082V287.709L536.791 287.371C539.009 288.242 541.144 289.295 543.172 290.519C545.105 292.339 546.352 294.72 546.716 297.289C546.716 301.52 546.716 304.973 546.291 307.681C546.24 308.771 545.933 309.835 545.393 310.796C544.853 311.757 544.094 312.59 543.172 313.233V313.233Z" fill="black"/>
<path d="M560.925 312.147C557.684 307.922 555.567 303.008 554.757 297.828C553.981 292.569 553.602 287.263 553.623 281.952H554.084V281.647H554.367L555.466 281.207H556.21V280.936H556.919C559.5 282.084 561.889 283.59 564.008 285.405L564.398 287.266C563.903 290.264 562.91 293.166 561.456 295.865C559.98 298.61 559.319 301.689 559.542 304.767C559.878 307.059 560.399 309.323 561.102 311.538L560.925 312.147ZM561.386 274.911L559.542 274.166L558.763 273.726C557.607 272.153 556.776 270.384 556.317 268.513C555.818 266.548 555.068 264.65 554.084 262.86H554.545L555.289 260.93H555.75C557.118 261.788 558.538 262.568 560.003 263.266C561.513 263.991 562.909 264.914 564.15 266.008C564.772 266.62 565.256 267.347 565.573 268.145C565.89 268.942 566.033 269.793 565.993 270.645C565.429 271.873 564.676 273.014 563.76 274.031L561.386 274.911Z" fill="black"/>
</svg>
